<svg width="170" height="172" viewBox="0 0 170 172" fill="none" xmlns="http://www.w3.org/2000/svg">
<path d="M4.45286 112.108C3.62879 110.013 2.61442 106.378 2.10161 104.199C-2.90464 82.1726 1.11723 59.0595 13.2682 40.0173C29.2497 15.0613 49.9901 6.15462 77.6332 0C58.5935 17.1685 49.2925 34.7503 50.5544 60.9989C52.5494 80.7394 60.1769 97.3248 75.7441 110.189C90.3982 122.284 109.306 127.964 128.2 125.958C143.996 124.289 157.731 117.625 169.233 106.794C158.082 133.672 147.583 152.475 118.838 164.474C97.6525 173.406 73.7679 173.482 52.5297 164.67C29.89 155.184 11.3941 135.828 4.45286 112.108Z" fill="#CDCDCD"/>
<path d="M4.45286 112.108C3.62879 110.013 2.61442 106.378 2.10161 104.199C-2.90464 82.1726 1.11723 59.0595 13.2682 40.0173C29.2497 15.0613 49.9901 6.15462 77.6332 0C58.5935 17.1685 49.2925 34.7503 50.5544 60.9989C49.8185 63.7247 42.9241 83.7492 41.6997 85.8695C35.8319 96.0209 17.9397 109.115 8.08192 115.085C6.23411 113.885 6.04286 113.669 4.45286 112.108Z" fill="#E7E7E7"/>
<path d="M96.0366 26.0884C96.2388 26.6822 96.4447 27.2663 96.6536 27.8505C99.5554 35.8666 99.8677 35.2249 107.966 39.0749C105.485 40.2816 104.505 39.0749 100.461 42.5609C97.6438 44.9888 97.0409 47.634 96.3674 51.3595C93.6361 42.8455 90.878 41.6873 84.6167 39.3854C94.7452 36.531 94.6743 30.8769 95.7224 27.2088L96.0366 26.0884Z" fill="#F7D52B"/>
<path d="M96.0366 72.9775C96.2388 73.5713 96.4447 74.1555 96.6536 74.7397C99.5554 82.7557 99.8677 82.114 107.966 85.964C105.485 87.1707 104.505 85.964 100.461 89.4501C97.6438 91.878 97.0409 94.5232 96.3674 98.2487C93.6361 89.7346 90.878 88.5765 84.6167 86.2746C94.7452 83.4202 94.6743 77.766 95.7224 74.098L96.0366 72.9775Z" fill="#F7D52B"/>
<path d="M129.365 51.3594C129.568 51.9532 129.774 52.5373 129.982 53.1215C132.884 61.1376 133.197 60.4959 141.295 64.3459C138.814 65.5526 137.834 64.3459 133.79 67.8319C130.973 70.2598 130.37 72.905 129.696 76.6305C126.965 68.1165 124.207 66.9583 117.946 64.6564C128.074 61.802 128.003 56.1478 129.051 52.4798L129.365 51.3594Z" fill="#F7D52B"/>
</svg>
