<svg width="170" height="172" viewBox="0 0 170 172" fill="none" xmlns="http://www.w3.org/2000/svg">
<path d="M4.45286 112.108C3.62879 110.013 2.61442 106.378 2.10161 104.199C-2.90464 82.1726 1.11723 59.0595 13.2682 40.0173C29.2497 15.0613 49.9901 6.15462 77.6332 0C58.5935 17.1685 49.2925 34.7503 50.5544 60.9989C52.5494 80.7394 60.1769 97.3248 75.7441 110.189C90.3982 122.284 109.306 127.964 128.2 125.958C143.996 124.289 157.731 117.625 169.233 106.794C158.082 133.672 147.583 152.475 118.838 164.474C97.6525 173.406 73.7679 173.482 52.5297 164.67C29.89 155.184 11.3941 135.828 4.45286 112.108Z" fill="#CDCDCD"/>
<path d="M4.45286 112.108C3.62879 110.013 2.61442 106.378 2.10161 104.199C-2.90464 82.1726 1.11723 59.0595 13.2682 40.0173C29.2497 15.0613 49.9901 6.15462 77.6332 0C58.5935 17.1685 49.2925 34.7503 50.5544 60.9989C49.8185 63.7247 42.9241 83.7492 41.6997 85.8695C35.8319 96.0209 17.9397 109.115 8.08192 115.085C6.23411 113.885 6.04286 113.669 4.45286 112.108Z" fill="#E7E7E7"/>
</svg>
