<svg width="178" height="178" viewBox="0 0 178 178" fill="none" xmlns="http://www.w3.org/2000/svg">
<path d="M82.0262 0.258083C113.918 -2.17527 144.659 12.7332 162.49 39.2855C180.321 65.8368 182.487 99.9262 168.162 128.521C153.827 157.119 125.224 175.791 93.2828 177.413C44.7541 179.878 3.26222 142.881 0.181598 94.3921C-2.89903 45.9069 33.5772 3.95498 82.0262 0.258083Z" fill="#B8B7B7"/>
<path d="M77.157 4.59137C124.306 -2.01974 167.815 31.0095 174.115 78.189C180.415 125.371 147.096 168.658 99.8651 174.648C53.0801 180.581 10.2748 147.643 4.03201 100.898C-2.2108 54.1574 30.4508 11.1416 77.157 4.59137Z" fill="#E1E1E2"/>
<path d="M105.34 65.9159C109.221 58.478 122.262 37.2659 131.73 47.0396C138.715 48.5412 152.44 52.2401 152.374 60.6078L151.025 62.5697C146.693 63.1377 145.381 61.907 141.415 59.3902L139.831 59.8007C139.671 60.9715 139.362 61.2424 139.896 61.8292C144.809 67.2705 142.193 71.572 145.315 75.9653C146.89 76.1163 148.043 76.2475 149.628 76.5099C155.234 85.3341 147.509 96.8044 156.199 102.168C162.265 123.365 157.465 118.341 147.471 133.292C142.493 140.734 155.271 141.962 130.034 144.821C132.218 140.79 134.253 134.36 136.953 132.42L140.759 131.82C141.556 129.167 138.921 122.953 137.937 120.103C141.884 114.676 143.909 112.042 138.387 106.049C135.303 104.8 136.625 104.872 133.437 105.768C122.14 117.45 139.353 119.119 131.656 131.436C129.79 134.416 127.915 138.325 126.143 141.484C123.087 134.613 118.709 128.839 125.112 122.775C124.418 117.516 120.162 114.979 120.162 111.672C120.162 107.204 125.881 106.745 122.646 100.6C118.793 98.2976 118.409 98.9763 117.209 95.6431C119.581 85.8328 119.712 81.5754 128.834 77.4398L128.703 76.2615C124.849 75.0467 119.253 73.9603 116.665 71.302L105.34 65.9159Z" fill="#B8B7B7"/>
<path d="M105.34 65.9159C103.24 57.5866 106.437 58.2945 106.221 49.8986L104.421 48.7738L104.065 47.1775L105.33 45.5353C108.387 44.8201 110.046 45.1003 113.149 45.2887C115.127 43.9165 115.905 43.2275 117.677 41.5834C121.23 41.1644 120.312 41.3978 124.005 43.5865C126.968 43.654 125.862 44.0515 128.056 42.2461C128.777 39.0114 128.955 40.2871 127.502 37.4385C113.337 32.1968 111.687 17.8573 96.1992 17.637C94.6242 17.6145 91.568 11.3783 90.6399 9.69111C99.4805 12.7122 130.005 27.1839 134.318 34.0125C135.584 38.8839 133.99 42.8075 131.73 47.0396C122.262 37.2659 109.221 58.478 105.34 65.9159Z" fill="#B8B7B7"/>
<path d="M100.005 59.468C104.13 62.206 107.205 72.2206 106.09 77.2241C103.474 79.6828 103.915 78.9545 99.668 79.4926C94.7743 76.3149 89.8993 69.5182 91.8774 63.4292C93.893 60.7409 96.7617 60.3519 100.005 59.468Z" fill="#B8B7B7"/>
<path d="M161.731 83.1963C172.737 85.0176 168.659 98.5472 164.056 104.832C152.703 104.652 157.025 89.349 161.731 83.1963Z" fill="#A9A9AA"/>
<path d="M57.952 44.0627C61.2305 44.4029 61.7058 44.4236 64.1827 46.5504C65.9789 52.2523 61.343 56.4001 58.3402 63.7751L56.7098 63.8182C55.3767 58.2888 55.522 58.391 52.1892 53.7708L57.952 44.0627Z" fill="#B8B7B7"/>
<path d="M25.9331 96.6133C29.565 98.3099 34.6031 112.282 36.6534 116.804C36.2465 118.744 36.2999 119.353 34.8506 120.722C32.9643 119.953 29.6287 119.203 27.554 118.66C24.1021 115.089 28.9978 111.365 28.8656 106.569C28.814 104.725 26.6222 98.6042 25.9331 96.6133Z" fill="#B8B7B7"/>
<path d="M45.792 108.338C48.5257 112.018 49.9151 111.562 52.1539 115.188C52.4464 118.594 50.0313 121.153 47.9735 124.209C47.5591 123.965 47.1485 123.712 46.7426 123.45C43.9441 121.669 41.0117 119.832 40.2664 116.617C40.7445 113.087 43.2607 111.095 45.792 108.338Z" fill="#E1E1E2"/>
<path d="M88.2961 73.9968C92.1961 74.7954 90.8273 74.0474 93.5742 76.687C94.6523 82.85 91.1085 84.9675 85.9607 87.04C82.1601 84.6357 80.7763 84.2654 81.0295 79.9452C82.9007 76.9869 85.342 75.8087 88.2961 73.9968Z" fill="#B8B7B7"/>
<path d="M17.2152 59.6052C18.6252 59.4553 20.0333 60.4329 21.1574 61.1856L21.5024 61.1134C22.0471 64.0736 20.5667 66.1348 19.1821 68.9778L18.6533 69.1596L17.1524 68.1829L17.9567 61.9205L16.7146 60.8285L17.2152 59.6052Z" fill="#E1E1E2"/>
<path d="M30.0044 81.3188L32.0678 82.5177C31.3778 84.9623 29.5844 85.4047 26.9556 87.181L26.394 87.3966C27.0325 84.3052 27.9016 83.6266 30.0044 81.3188Z" fill="#E1E1E2"/>
</svg>
