<svg width="257" height="168" viewBox="0 0 257 168" fill="none" xmlns="http://www.w3.org/2000/svg">
<path d="M185.638 24.2491C186.573 22.6754 187.577 21.1421 188.645 19.6535C193.361 13.0754 200.526 8.66254 208.522 7.40272C218.576 5.89107 224.506 8.90434 232.104 14.5491C239.039 22.5426 240.128 25.5122 241.795 35.8949C247.188 38.1697 251.479 40.245 254.151 45.8075C259.488 56.0465 256.6 66.577 246.239 72.053C241 74.8203 237.441 74.6201 231.609 74.5029C225.399 74.475 195.496 73.5716 191.094 74.7784C181.752 73.257 174.705 77.0918 164.582 67.0279C159.952 62.4407 157.381 56.1722 157.458 49.6562C157.434 42.8423 160.18 36.3116 165.064 31.5597C171.007 25.7747 177.607 24.1257 185.638 24.2491Z" fill="url(#paint0_linear_8810_8293)"/>
<path d="M105.137 66.1876C107.012 63.031 109.027 59.9556 111.168 56.9697C120.628 43.7753 135 34.924 151.038 32.397C171.203 29.365 183.099 35.409 198.339 46.7313C212.249 62.7647 214.432 68.7212 217.777 89.5468C228.594 94.1096 237.201 98.2722 242.561 109.429C253.266 129.967 247.473 151.089 226.691 162.073C216.181 167.623 209.044 167.222 197.345 166.987C184.89 166.931 124.911 165.119 116.08 167.539C97.3421 164.488 83.2075 172.18 62.9018 151.993C53.6152 142.792 48.4598 130.219 48.6137 117.149C48.5661 103.482 54.0729 90.3826 63.8688 80.8512C75.7905 69.2477 89.0291 65.94 105.137 66.1876Z" fill="url(#paint1_linear_8810_8293)"/>
<path d="M41.4743 25.3639C42.8501 23.0478 44.3287 20.7913 45.8997 18.6005C52.8407 8.91953 63.3857 2.42519 75.1526 0.57112C89.9486 -1.65356 98.6767 2.78105 109.858 11.0884C120.065 22.8524 121.666 27.2228 124.12 42.5029C132.057 45.8507 138.372 48.9049 142.305 57.0911C150.16 72.1598 145.909 87.6575 130.661 95.7165C122.95 99.7891 117.713 99.4945 109.129 99.322C99.991 99.2809 55.983 97.9514 49.504 99.7275C35.7553 97.4884 25.3845 103.132 10.4859 88.3211C3.67214 81.5701 -0.110487 72.3449 0.00245866 62.7553C-0.032452 52.7273 4.00793 43.1161 11.1954 36.1228C19.9426 27.6091 29.656 25.1821 41.4743 25.3639Z" fill="url(#paint2_linear_8810_8293)"/>
<defs>
<linearGradient id="paint0_linear_8810_8293" x1="207.116" y1="7.01465" x2="207.116" y2="74.7784" gradientUnits="userSpaceOnUse">
<stop stop-color="white"/>
<stop offset="1" stop-color="#999999"/>
</linearGradient>
<linearGradient id="paint1_linear_8810_8293" x1="148.217" y1="31.6187" x2="148.217" y2="167.539" gradientUnits="userSpaceOnUse">
<stop stop-color="white"/>
<stop offset="1" stop-color="#999999"/>
</linearGradient>
<linearGradient id="paint2_linear_8810_8293" x1="73.083" y1="0" x2="73.083" y2="99.7275" gradientUnits="userSpaceOnUse">
<stop stop-color="white"/>
<stop offset="1" stop-color="#999999"/>
</linearGradient>
</defs>
</svg>
