<svg width="269" height="262" viewBox="0 0 269 262" fill="none" xmlns="http://www.w3.org/2000/svg">
<path d="M46.8657 28.1519C48.294 25.371 50.2818 22.0655 52.1361 19.5602C59.8539 9.10524 71.4892 2.23548 84.3689 0.525982C115.549 -3.72814 134.877 18.3559 138.469 47.4892L145.293 50.0614C162.232 60.9222 168.413 77.0743 158.147 95.903C154.33 102.886 145.226 108.154 137.517 109.722C115.474 112.553 89.1549 109.407 67.0122 110.746C59.7537 110.805 52.487 110.828 45.2286 110.813C31.8811 110.716 21.1229 108.084 11.4088 98.0393C3.89983 90.22 -0.201214 79.7409 0.00760077 68.9026C0.157948 57.8239 4.76853 47.2737 12.7954 39.6299C22.9271 30.0009 33.5516 27.7561 46.8657 28.1519Z" fill="url(#paint0_linear_8810_8344)"/>
<path d="M237.706 99.5843C233.939 50.5984 187.908 23.7316 145.293 50.0614C162.232 60.9222 168.413 77.0743 158.147 95.903C154.33 102.886 145.226 108.154 137.517 109.722C115.474 112.553 89.1549 109.407 67.0122 110.746C62.8024 124.826 63.6878 139.043 70.8209 152.054C77.5698 164.334 88.9962 173.36 102.502 177.075C116.009 180.789 216.741 185.117 240.17 177.378C263.599 169.639 272.119 149.634 267.249 126.531C261.018 111.527 253.267 104.312 237.706 99.5843Z" fill="url(#paint1_linear_8810_8344)"/>
<path d="M214.131 203.582C217.096 207.605 216.832 220.012 214.591 224.535C212.83 228.09 211.429 228.212 208.085 229.324C199.439 219.925 207.781 211.642 214.131 203.582Z" fill="#7CB6ED"/>
<path d="M145.285 240.783C150.059 245.228 148.535 257.814 141.389 261.654C134.457 253.944 140.323 247.724 145.285 240.783Z" fill="#7CB6ED"/>
<path d="M119.313 218.754C122.074 226.366 122.133 236.078 113.516 239.479C108.44 230.511 113.121 225.47 119.313 218.754Z" fill="#7CB6ED"/>
<path d="M169.53 209.075L170.882 209.768C173.943 215.981 172.485 226.406 165.42 229.774C159.831 220.494 163.852 217.609 169.53 209.075Z" fill="#7CB6ED"/>
<path d="M136.371 196.707C139.058 203.784 139.496 214.429 130.529 216.837C125.644 208.66 131.145 203.058 136.371 196.707Z" fill="#7CB6ED"/>
<path d="M103.838 199.604L105.386 201.428C106.306 209.49 106.647 213.462 99.0943 217.511C97.9581 215.837 97.6362 215.077 96.7481 213.297C96.6226 206.919 99.6854 204.481 103.838 199.604Z" fill="#7CB6ED"/>
<path d="M57.1328 128.271C50.5689 128.384 19.7942 125.599 33.3112 140.008C35.2791 142.106 58.375 140.877 63.1256 141.052C73.988 141.041 138.657 142.174 143.403 139.776C146.654 135.894 147.021 133.253 143.207 129.456C137.799 127.013 69.1853 128.181 57.1328 128.271Z" fill="white"/>
<path d="M218.446 78.1578L164.379 78.2643C155.472 78.2532 146.227 77.8805 137.336 78.4014C133.226 78.6417 131.208 80.7798 130.55 84.5957C131.886 92.077 139.071 91.0233 145.395 91.0375C170.847 91.0958 196.331 91.0501 221.781 91.0091C228.916 91.1297 243.388 93.0258 246.643 85.9543C246.195 74.8494 227.455 78.3217 218.446 78.1578Z" fill="white"/>
<path d="M222.731 103.367C209.471 103.418 196.21 103.4 182.95 103.312C175.917 103.284 168.449 103.029 161.454 103.633C157.555 103.97 155.836 106.292 155.427 109.883C156.193 112.66 156.269 113.1 158.416 115.075C163.721 117.369 212.117 116.066 221.708 116.174C229.397 116.268 242.651 118.464 246.398 111.254C246.509 100.445 231.175 103.481 222.731 103.367Z" fill="white"/>
<path d="M213.535 66.543C216.755 66.5604 227.312 66.9189 228.832 65.2482C242.77 49.92 208.085 53.3946 204.406 53.3679C194.627 53.2906 151.678 50.6041 146.23 56.8362C145.151 58.0696 144.858 59.243 145.217 60.7766C145.601 62.4174 147.465 64.8439 149.107 65.558C154.903 68.0775 203.273 66.4043 213.535 66.543Z" fill="white"/>
<path d="M70.6821 152.816C63.8802 153.006 34.7617 150.516 47.9275 164.178C50.7549 167.112 78.5758 165.775 83.9735 165.86C92.5639 165.754 123.463 168.505 129.288 163.369C130.651 162.167 131.145 161.058 131.194 159.327C131.24 157.69 130.293 156.239 129.112 155.109C124.416 150.619 79.7295 152.771 70.6821 152.816Z" fill="white"/>
<path d="M185.894 128.123C178.151 127.977 158.542 125.938 153.693 132.028C152.294 136.203 154.521 139.138 158.405 140.893C167.325 141.122 183.711 142.665 190.487 137.816C193.041 133.313 189.999 130.583 185.894 128.123Z" fill="white"/>
<path d="M118.837 78.3683C111.065 78.191 71.3861 74.7699 89.9925 90.8728C97.5829 91.095 136.92 94.5106 118.837 78.3683Z" fill="white"/>
<path d="M144.253 103.567C136.832 103.419 98.0831 99.3092 113.818 115.726C119.036 116.398 125.7 116.143 131.098 116.384C140.794 116.816 153.876 115.752 144.253 103.567Z" fill="white"/>
<defs>
<linearGradient id="paint0_linear_8810_8344" x1="134.284" y1="0" x2="134.284" y2="261.654" gradientUnits="userSpaceOnUse">
<stop stop-color="#7A96B0"/>
<stop offset="1" stop-color="#333F4A"/>
</linearGradient>
<linearGradient id="paint1_linear_8810_8344" x1="134.284" y1="0" x2="134.284" y2="261.654" gradientUnits="userSpaceOnUse">
<stop stop-color="#7A96B0"/>
<stop offset="1" stop-color="#333F4A"/>
</linearGradient>
</defs>
</svg>
