<svg width="246" height="172" viewBox="0 0 246 172" fill="none" xmlns="http://www.w3.org/2000/svg">
<path d="M51.3259 112.108C50.5018 110.013 49.4875 106.378 48.9747 104.199C43.9684 82.1727 47.9903 59.0594 60.1412 40.0172C76.1228 15.0613 96.8632 6.15462 124.506 0C105.467 17.1684 96.1657 34.7504 97.4276 60.9989C99.4226 80.7394 107.05 97.3249 122.617 110.189C137.271 122.284 156.179 127.964 175.073 125.958C190.869 124.289 204.604 117.625 216.107 106.794C204.955 133.672 194.456 152.476 165.711 164.474C144.526 173.406 120.641 173.482 99.4029 164.67C76.7632 155.185 58.2672 135.828 51.3259 112.108Z" fill="#CDCDCD"/>
<path d="M51.3259 112.108C50.5018 110.013 49.4875 106.378 48.9747 104.199C43.9684 82.1727 47.9903 59.0594 60.1412 40.0172C76.1228 15.0613 96.8632 6.15462 124.506 0C105.467 17.1684 96.1657 34.7504 97.4276 60.9989C96.6916 63.7247 89.7972 83.7493 88.5729 85.8696C82.705 96.021 64.8128 109.115 54.955 115.085C53.1072 113.885 52.9159 113.669 51.3259 112.108Z" fill="#E7E7E7"/>
<path d="M214.968 110.764C222.413 110.898 257.322 107.586 241.989 124.724C239.757 127.22 213.559 125.757 208.17 125.966C195.848 125.952 122.493 127.3 117.109 124.448C113.421 119.831 113.005 116.69 117.331 112.174C123.466 109.268 201.296 110.657 214.968 110.764Z" fill="#E7E7E7"/>
<path d="M31.9846 51.1594L93.315 51.286C103.418 51.2729 113.905 50.8295 123.991 51.4491C128.653 51.735 130.942 54.278 131.688 58.8166C130.173 67.7149 122.022 66.4616 114.849 66.4785C85.9781 66.5479 57.0703 66.4934 28.2019 66.4447C20.1084 66.5881 3.6928 68.8434 -1.31102e-05 60.4325C0.508112 47.2244 21.7659 51.3544 31.9846 51.1594Z" fill="#E7E7E7"/>
<path d="M37.5562 37.3448C33.9037 37.3654 21.9281 37.7919 20.2041 35.8047C4.39406 17.5733 43.7381 21.7061 47.9109 21.6742C59.0034 21.5823 107.722 18.387 113.903 25.7995C115.126 27.2664 115.458 28.6621 115.051 30.4862C114.616 32.4378 112.501 35.3239 110.638 36.1731C104.064 39.1698 49.1962 37.1798 37.5562 37.3448Z" fill="#E7E7E7"/>
<path d="M199.598 139.958C207.314 140.184 240.344 137.223 225.41 153.472C222.202 156.962 190.644 155.372 184.522 155.473C174.777 155.346 139.728 158.618 133.12 152.51C131.574 151.08 131.014 149.761 130.958 147.702C130.906 145.755 131.979 144.03 133.319 142.685C138.647 137.344 189.336 139.905 199.598 139.958Z" fill="#E7E7E7"/>
<path d="M68.91 110.588C77.6935 110.415 99.9366 107.989 105.437 115.233C107.023 120.199 104.498 123.689 100.091 125.777C89.9729 126.049 71.386 127.885 63.7003 122.116C60.8025 116.761 64.2535 113.514 68.91 110.588Z" fill="#E7E7E7"/>
<path d="M144.975 51.4097C153.79 51.1988 198.8 47.1298 177.694 66.2826C169.084 66.547 124.463 70.6094 144.975 51.4097Z" fill="#E7E7E7"/>
<path d="M116.144 81.3813C124.563 81.2051 168.517 76.3169 150.668 95.8428C144.749 96.6423 137.19 96.3386 131.067 96.6254C120.068 97.1391 105.229 95.8737 116.144 81.3813Z" fill="#E7E7E7"/>
</svg>
