<svg width="246" height="193" viewBox="0 0 246 193" fill="none" xmlns="http://www.w3.org/2000/svg">
<path d="M47.9109 36.3501C65.5538 15.5776 87.8269 2.56159 115.328 0.356949C140.956 -1.8655 166.396 6.35691 185.873 23.1579C205.259 39.854 217.22 63.5642 219.127 89.075C220.088 101.941 218.167 113.049 214.968 125.44C222.413 125.574 257.322 122.262 241.989 139.4C239.757 141.895 213.559 140.433 208.17 140.642C205.035 146.982 203.654 149.046 199.598 154.634C207.314 154.86 240.344 151.899 225.41 168.148C222.202 171.637 190.644 170.048 184.522 170.149C170.852 180.685 158.137 187.303 140.976 190.488C115.627 195.249 89.4281 189.675 68.2144 175.007C46.26 159.784 32.9259 137.132 28.2853 111.052C19.5628 111.164 4.52812 113.776 0.278435 105.2C0.15281 92.3435 17.5462 95.9542 27.1247 95.8192C27.0037 91.468 27.765 85.5712 28.2019 81.1207C20.1084 81.2641 3.69281 83.5193 0 75.1085C0.508125 61.9004 21.7659 66.0303 31.9847 65.8354C33.1012 62.0644 35.9484 55.8357 37.5562 52.0207C33.9037 52.0413 21.9281 52.4678 20.2041 50.4807C4.39406 32.2492 43.7381 36.382 47.9109 36.3501Z" fill="#F0AA01"/>
<path d="M214.968 125.44C222.413 125.574 257.322 122.262 241.989 139.4C239.757 141.895 213.559 140.433 208.17 140.642C195.848 140.628 122.493 141.976 117.109 139.124C113.421 134.507 113.005 131.366 117.331 126.85C123.466 123.944 201.296 125.333 214.968 125.44Z" fill="#E4D6AC"/>
<path d="M31.9847 65.8354L93.315 65.962C103.418 65.9488 113.905 65.5055 123.991 66.125C128.653 66.4109 130.942 68.954 131.688 73.4926C130.173 82.3908 122.022 81.1376 114.849 81.1545C85.9781 81.2239 57.0703 81.1694 28.2019 81.1207C20.1084 81.2641 3.69281 83.5193 0 75.1085C0.508125 61.9004 21.7659 66.0303 31.9847 65.8354Z" fill="#E4D6AC"/>
<path d="M27.1247 95.8192C42.1659 95.8801 57.2082 95.8582 72.2495 95.7542C80.2266 95.7205 88.6988 95.4177 96.6329 96.1357C101.056 96.5369 103.005 99.2983 103.47 103.57C102.601 106.872 102.515 107.396 100.079 109.744C94.0613 112.474 39.1641 110.924 28.2853 111.052C19.5628 111.164 4.52812 113.776 0.278435 105.2C0.15281 92.3435 17.5462 95.9542 27.1247 95.8192Z" fill="#E4D6AC"/>
<path d="M37.5562 52.0207C33.9037 52.0413 21.9281 52.4678 20.2041 50.4807C4.39406 32.2492 43.7381 36.382 47.9109 36.3501C59.0034 36.2583 107.722 33.0629 113.903 40.4754C115.126 41.9424 115.458 43.3381 115.051 45.1622C114.616 47.1137 112.501 49.9998 110.638 50.8491C104.064 53.8458 49.1962 51.8557 37.5562 52.0207Z" fill="#E4D6AC"/>
<path d="M199.598 154.634C207.314 154.86 240.344 151.899 225.41 168.148C222.202 171.637 190.644 170.048 184.522 170.149C174.777 170.022 139.728 173.294 133.12 167.186C131.574 165.756 131.014 164.436 130.958 162.378C130.906 160.431 131.979 158.706 133.319 157.361C138.647 152.02 189.336 154.581 199.598 154.634Z" fill="#E4D6AC"/>
<path d="M68.91 125.264C77.6935 125.091 99.9366 122.665 105.437 129.908C107.023 134.875 104.498 138.365 100.091 140.453C89.9729 140.725 71.386 142.561 63.7003 136.792C60.8025 131.437 64.2535 128.19 68.91 125.264Z" fill="#E4D6AC"/>
<path d="M144.975 66.0857C153.791 65.8748 198.8 61.8058 177.694 80.9586C169.084 81.2229 124.463 85.2854 144.975 66.0857Z" fill="#E4D6AC"/>
<path d="M116.144 96.0573C124.563 95.8811 168.517 90.9928 150.668 110.519C144.749 111.318 137.19 111.015 131.067 111.301C120.069 111.815 105.229 110.55 116.144 96.0573Z" fill="#E4D6AC"/>
</svg>
