<svg width="269" height="264" viewBox="0 0 269 264" fill="none" xmlns="http://www.w3.org/2000/svg">
<path d="M46.8657 28.1519C48.294 25.371 50.2818 22.0655 52.1361 19.5602C59.8539 9.10524 71.4892 2.23548 84.3689 0.525982C115.549 -3.72814 134.877 18.3559 138.469 47.4892L145.293 50.0614C162.232 60.9222 168.413 77.0743 158.147 95.903C154.33 102.886 145.226 108.154 137.517 109.722C115.474 112.553 89.1549 109.407 67.0122 110.746C59.7537 110.805 52.487 110.828 45.2286 110.813C31.8811 110.716 21.1229 108.084 11.4088 98.0393C3.89983 90.22 -0.201214 79.7409 0.00760077 68.9026C0.157948 57.8239 4.76853 47.2737 12.7954 39.6299C22.9271 30.0009 33.5516 27.7561 46.8657 28.1519Z" fill="url(#paint0_linear_8810_8345)"/>
<path d="M237.706 99.5843C233.939 50.5984 187.908 23.7316 145.293 50.0614C162.232 60.9222 168.413 77.0743 158.147 95.903C154.33 102.886 145.226 108.154 137.517 109.722C115.474 112.553 89.1549 109.407 67.0122 110.746C62.8024 124.826 63.6878 139.043 70.8209 152.054C77.5698 164.334 88.9962 173.36 102.502 177.075C116.009 180.789 216.741 185.117 240.17 177.378C263.599 169.639 272.119 149.634 267.249 126.531C261.018 111.527 253.267 104.312 237.706 99.5843Z" fill="url(#paint1_linear_8810_8345)"/>
<path d="M200.008 203.825C200.957 204.359 201.206 204.83 201.991 205.679C203.179 213.146 204.358 223.243 199.817 230.254C198.131 232.86 195.736 232.763 192.967 233.258C184.134 223.18 192.517 211.918 200.008 203.825Z" fill="#7CB6ED"/>
<path d="M109.734 235.497C114.365 238.785 116.176 260.338 103.001 262.75C93.2651 253.666 102.791 242.952 109.734 235.497Z" fill="#7CB6ED"/>
<path d="M147.097 203.791L148.343 205.014C150.824 213.515 151.753 227.456 141.833 231.243C133.628 221.885 141.017 211.939 147.097 203.791Z" fill="#7CB6ED"/>
<path d="M140.39 237.462C143.059 241.039 142.649 250.629 142.029 255.092C141.358 259.927 139.952 260.557 136.381 263.083C129.495 254.803 135.34 245.166 140.39 237.462Z" fill="#7CB6ED"/>
<path d="M176.719 193.343L177.811 194.565C179.737 202.057 180.427 210.701 172.216 214.02C165.798 206.444 171.785 199.839 176.719 193.343Z" fill="#7CB6ED"/>
<path d="M188.8 240.178L189.93 240.798C193.072 246.954 191.176 257.065 184.728 260.901C177.821 253.392 184 247.058 188.8 240.178Z" fill="#7CB6ED"/>
<path d="M166.622 235.561C171.632 240.501 169.544 251.567 163.355 256.128C156.39 249.159 161.975 242.186 166.622 235.561Z" fill="#7CB6ED"/>
<path d="M237.553 213.368C242.573 217.187 239.9 229.525 234.334 234.031C233.271 232.872 232.332 231.619 231.355 230.381C229.927 223.97 234.066 219.138 237.553 213.368Z" fill="#7CB6ED"/>
<path d="M115.813 203.103C118.274 206.057 118.019 214.338 116.44 217.861C115.213 220.602 113.544 220.525 110.948 221.258C105.661 213.822 110.992 209.445 115.813 203.103Z" fill="#7CB6ED"/>
<path d="M128.382 213.361L129.523 214.045C131.773 219.367 130.444 227.748 126.051 231.743C125.056 230.479 124.315 229.259 123.443 227.913C122.559 221.75 125.186 218.61 128.382 213.361Z" fill="#7CB6ED"/>
<path d="M223.863 198.23C227.532 203.158 225.453 212.806 220.759 217.103C215.921 210.71 220.04 203.887 223.863 198.23Z" fill="#7CB6ED"/>
<path d="M214.129 235.504C215.863 237.529 216.045 244.183 215.461 246.841C214.589 250.829 213.564 251.167 210.441 253.285L210.24 252.844C206.753 245.533 209.77 241.441 214.129 235.504Z" fill="#7CB6ED"/>
<defs>
<linearGradient id="paint0_linear_8810_8345" x1="134.284" y1="0" x2="134.284" y2="263.083" gradientUnits="userSpaceOnUse">
<stop stop-color="#7A96B0"/>
<stop offset="1" stop-color="#333F4A"/>
</linearGradient>
<linearGradient id="paint1_linear_8810_8345" x1="134.284" y1="0" x2="134.284" y2="263.083" gradientUnits="userSpaceOnUse">
<stop stop-color="#7A96B0"/>
<stop offset="1" stop-color="#333F4A"/>
</linearGradient>
</defs>
</svg>
