<svg width="255" height="239" viewBox="0 0 255 239" fill="none" xmlns="http://www.w3.org/2000/svg">
<path d="M97.9038 51.5663C109.513 28.5 122.933 12.4208 148.433 4.05872C168.777 -2.6405 190.949 -0.998273 210.083 8.62735C229.227 18.3195 243.683 35.2902 250.208 55.7338C256.78 76.2664 254.868 98.5715 244.902 117.691C240.477 126.155 234.486 134.166 227.099 140.284C233.127 164.625 223.939 192.329 197.586 198.719C200.324 202.665 202.33 205.242 204.111 209.698C209.118 233.501 168.121 256.165 162.524 201.39L162.374 200.893C158.905 200.763 148.17 201.521 145.395 202.6L146.605 204.388C146.605 204.388 148.62 207.019 149.642 209.463C154.827 227.468 134.296 242.755 119.296 230.591C110.21 223.22 109.381 211.257 108.206 200.601C104.334 200.64 100.86 200.47 96.9944 200.27C94.4641 200.48 90.053 200.6 87.908 201.727C90.1262 205.147 92.2685 206.135 93.4075 210.078C97.1163 221.248 87.4854 233.142 76.2269 234.39C71.2132 234.964 66.1863 233.425 62.3538 230.142C53.4279 222.644 52.8973 210.798 51.8144 200.198C37.9657 198.153 26.7747 193.471 16.7257 183.374C5.8769 172.413 -0.142741 157.574 0.00257103 142.153C0.034446 126.441 6.51159 111.428 17.9219 100.622C32.5741 86.5819 46.8653 84.2197 65.9519 84.5637C73.0572 70.376 82.8926 59.2535 97.3835 52.3049L97.9038 51.5663Z" fill="url(#paint0_linear_8806_5972)"/>
<path d="M97.9038 51.5663C109.513 28.5 122.933 12.4208 148.433 4.05872C168.777 -2.6405 190.949 -0.998273 210.083 8.62735C229.227 18.3195 243.683 35.2902 250.208 55.7338C256.78 76.2664 254.868 98.5715 244.902 117.691C240.477 126.155 234.486 134.166 227.099 140.284C226.293 138.549 225.458 136.829 224.586 135.126C217.649 121.639 208.161 115.964 194.389 111.633C194.033 103.324 193.133 96.693 190.274 88.8109C184.096 71.6096 171.243 57.6235 154.621 50.0075C135.693 41.3052 116.511 44.6683 97.9038 51.5663Z" fill="#F0AA01"/>
<path d="M106.487 202.411C113.061 204.493 137.376 211.988 144.039 210.701C145.048 211.656 144.9 211.383 146.326 211.907L149.642 209.463C156.325 229.146 135.049 247.456 118.03 234.077C108.586 226.653 107.695 213.479 106.487 202.411Z" fill="#438EE1"/>
<path d="M106.714 199.779C105.536 196.681 103.032 181.817 104.14 178.116C105.378 176.735 105.903 175.595 107.982 175.715C115.664 176.157 135.94 193.835 141.455 198.716L145.395 202.6L147.317 205.379L149.642 209.463L146.326 211.907C144.9 211.383 145.048 211.656 144.039 210.701C137.376 211.988 113.061 204.493 106.487 202.411L106.714 199.779Z" fill="#83BEED"/>
<path d="M106.714 199.779C113.486 200.753 120.486 203.608 129.495 204.4L131.485 205.379L131.505 206.372C136.742 207.786 140.069 206.114 143.553 209.167L144.039 210.701C137.376 211.988 113.061 204.493 106.487 202.411L106.714 199.779Z" fill="#63AEE6"/>
<path d="M141.455 198.716L145.395 202.6L147.317 205.379L149.642 209.463L146.326 211.907C144.9 211.383 145.048 211.656 144.039 210.701L143.553 209.167C140.069 206.114 136.742 207.786 131.505 206.372L131.485 205.379L129.495 204.4C132.495 202.802 138.158 204.766 141.95 203.814L140.494 201.14L141.455 198.716Z" fill="#7CB6ED"/>
<path d="M161.428 194.814C163.626 196.654 164.131 197.003 164.933 199.761C170.526 200.87 200.851 207.691 204.019 207.092C205.039 209.536 206.118 211.947 206.9 214.471C207.91 225.755 199.712 237.406 188.07 238.43C182.971 238.855 177.902 237.274 173.952 234.021C164.596 226.453 163.735 215.177 162.567 204.295L162.022 202.722L161.428 194.814Z" fill="#438EE1"/>
<path d="M161.428 194.814C163.626 196.654 164.131 197.003 164.933 199.761C170.526 200.87 200.851 207.691 204.019 207.092C205.039 209.536 206.118 211.947 206.9 214.471C203.306 211.813 173.675 209.145 168.408 208.982C165.012 208.877 164.557 206.987 162.567 204.295L162.022 202.722L161.428 194.814Z" fill="#63AEE6"/>
<path d="M160.27 184.432C167.101 187.447 181.951 194.788 188.812 192.262L193.951 195.523C195.119 196.616 198.564 199.677 199.445 200.694L204.019 207.092C200.851 207.691 170.526 200.87 164.933 199.761C164.131 197.003 163.626 196.654 161.428 194.814C161.359 192.458 160.567 187.006 160.27 184.432Z" fill="#7CB6ED"/>
<path d="M160.27 184.432C159.943 180.941 159.339 178.997 161.121 176.083C168.477 172.561 182.743 187.213 188.812 192.262C181.951 194.788 167.101 187.447 160.27 184.432Z" fill="#9ECAF0"/>
<path d="M51.0886 206.615C53.0489 206.472 61.286 205.833 62.672 206.263C72.9584 209.456 83.8291 214.249 94.8481 214.442C95.0164 221.502 93.8777 225.296 89.2147 230.846C85.9179 234.736 81.1855 237.113 76.0968 237.427C70.4734 237.791 64.949 235.888 60.7414 232.144C52.8806 225.249 51.742 216.356 51.0886 206.615Z" fill="#438EE1"/>
<path d="M47.9504 181.238C53.5837 185.362 68.1173 195.884 75.0277 190.677C79.869 193.852 86.0369 198.479 89.3118 203.64L91.6733 206.495C94.4354 211.144 93.175 209.33 94.8481 214.442C83.8291 214.249 72.9586 210.303 62.6722 207.111C61.2861 206.68 53.049 207.32 51.0888 207.462L50.0196 201.974L49.782 193.517C48.5741 189.909 48.3267 185.124 47.9504 181.238Z" fill="#7CB6ED"/>
<path d="M49.782 193.517C51.861 195.808 51.0591 198.099 52.2273 199.61C52.3065 199.711 84.037 205.994 86.0369 205.82C87.0764 205.729 87.0764 205.675 87.908 205.35L89.3118 203.64L91.6733 206.495C94.4354 211.144 93.175 209.33 94.8481 214.442C83.8291 214.249 72.9586 210.303 62.6722 207.111C61.2861 206.68 53.049 207.32 51.0888 207.462L50.0196 201.974L49.782 193.517Z" fill="#63AEE6"/>
<path d="M47.9504 181.238C48.089 176.789 47.4949 178.16 49.6037 175.013C56.9893 173.93 68.5925 186.069 75.0277 190.677C68.1173 195.884 53.5837 185.362 47.9504 181.238Z" fill="#9ECAF0"/>
<defs>
<linearGradient id="paint0_linear_8806_5972" x1="127.026" y1="0" x2="127.026" y2="238.653" gradientUnits="userSpaceOnUse">
<stop stop-color="#7A96B0"/>
<stop offset="1" stop-color="#333F4A"/>
</linearGradient>
</defs>
</svg>
