<svg width="255" height="202" viewBox="0 0 255 202" fill="none" xmlns="http://www.w3.org/2000/svg">
<path d="M98.5699 50.817C108.657 28.7162 122.682 13.5377 145.811 5.03412C166.098 -2.50309 188.56 -1.54418 208.135 7.69244C227.56 16.8709 242.504 33.4451 249.629 53.7162C256.604 74.0707 255.311 96.3524 246.02 115.761C241.276 125.54 235.314 133.033 227.307 140.248C230.607 153.877 230.823 167.176 223.135 179.534C216.864 189.611 206.279 196.642 194.739 199.164C184.904 201.314 60.723 201.93 50.8886 200.118C37.7355 198.594 25.5105 192.584 16.2667 183.102C5.38233 171.738 -0.467622 156.468 0.0292534 140.739C0.498003 125.273 7.14481 110.638 18.4792 100.106C32.7667 86.7858 47.1199 84.0581 65.6449 84.6787C76.1261 66.257 81.2636 62.1917 98.5699 50.817Z" fill="white"/>
<path d="M98.5699 50.817C108.657 28.7162 122.682 13.5377 145.811 5.03412C166.098 -2.50309 188.56 -1.54418 208.135 7.69244C227.56 16.8709 242.504 33.4451 249.629 53.7162C256.604 74.0707 255.311 96.3524 246.02 115.761C241.276 125.54 235.314 133.033 227.307 140.248C225.854 137.244 224.298 134.489 222.685 131.581C216.292 120.288 206.12 115.54 194.579 111.222C193.951 103.385 193.276 97.2157 190.679 89.731C184.548 72.3497 171.76 58.1208 155.129 50.1852C136.66 41.3348 117.048 44.3558 98.5699 50.817Z" fill="#F0AA01"/>
</svg>
