<svg width="270" height="204" viewBox="0 0 270 204" fill="none" xmlns="http://www.w3.org/2000/svg">
<path d="M145.55 41.8801C152.721 24.5682 163.587 12.1025 181.334 4.83427C197.29 -1.7534 215.243 -1.60248 231.087 5.2514C246.509 11.8719 258.612 24.4257 264.659 40.0766C266.018 43.5261 268.034 49.8719 268.231 53.6138C273.256 83.9623 254.215 115.526 224.515 124.125C233.262 133.839 238.175 145.874 237.734 158.997C237.284 171.548 231.771 183.387 222.443 191.814C213.171 200.334 202.081 203.455 189.631 203.53C145.878 203.774 102.05 204.149 58.3059 203.408C41.4872 203.127 26.4497 196.2 15.284 183.649C4.58715 171.67 -0.878522 155.904 0.115228 139.866C0.987103 123.899 8.31839 108.97 20.4309 98.5203C34.3434 86.3141 50.2153 82.4635 68.2715 83.6417C80.0559 60.2624 100.756 44.2479 127.4 43.004C131.346 42.8203 142.643 43.3845 145.55 41.8801Z" fill="url(#paint0_linear_8806_5979)"/>
<path d="M145.55 41.8801C152.721 24.5682 163.587 12.1025 181.334 4.83427C197.29 -1.7534 215.243 -1.60248 231.087 5.2514C246.509 11.8719 258.612 24.4257 264.659 40.0766C266.018 43.5261 268.034 49.8719 268.231 53.6138C273.256 83.9623 254.215 115.526 224.515 124.125C222.443 122.798 219.153 120.105 217.09 118.51C211.259 115.187 207.631 113.934 201.397 111.612L200.665 104.674C197.881 79.3712 183.04 59.8959 160.803 48.2278C156.669 46.0588 148.306 44.4456 145.55 41.8801Z" fill="#E1E1E2"/>
<path d="M231.565 32.1741C240.134 27.5792 254.3 34.7452 251.056 43.306C247.062 44.144 248.468 43.1016 243.978 41.6759L243.34 42.6714C244.09 45.5912 245.29 51.25 246.715 53.6253L250.643 54.1024C252.856 59.1322 251.59 67.8926 254.15 72.3975L255.837 70.8453C255.762 66.8147 255.528 65.3459 257.018 61.5834C260.159 58.6795 258.64 59.5624 263.093 58.4873C263.712 59.1284 265.747 62.0614 266.487 63.0484L264.79 60.8072L267.087 62.5479L268.231 53.6138C273.256 83.9623 254.215 115.526 224.515 124.125C222.443 122.798 219.153 120.105 217.09 118.51C218.281 116.778 231.106 108.259 235.025 103.846L235.484 101.512L232.222 100.919C228.922 91.9309 230.562 82.9689 229.306 73.3798C229.156 72.1819 226.887 69.4496 226.081 68.3407C227.206 64.491 232.493 54.4455 232.606 53.7603C229.39 52.0515 228.303 51.4778 225.415 49.1738C224.056 45.834 224.178 47.2523 224.862 43.8122C226.531 39.2717 227.834 35.198 231.565 32.1741Z" fill="#B8B7B7"/>
<path d="M268.231 53.6138C273.256 83.9623 254.215 115.526 224.515 124.125C222.443 122.798 219.153 120.105 217.09 118.51C218.281 116.778 231.106 108.259 235.025 103.846L235.484 101.512L232.222 100.919C235.69 97.4256 236.534 95.7471 239.037 91.44C236.806 85.7559 233.103 79.4869 239.881 75.8369C242.722 76.4002 241.662 75.8641 243.715 78.1137C244.587 82.9101 243.125 81.6062 241.906 85.5047C241.315 87.3887 244.053 91.3528 242.956 94.6467L239.581 95.5268C238.025 98.6575 237.247 100.828 236.065 104.095L246.087 103.371C248.787 101.254 248.178 96.7491 249.865 94.4592C256.915 84.9011 259.559 84.4124 254.15 72.3975L255.837 70.8453C255.762 66.8147 255.528 65.3459 257.018 61.5834C260.159 58.6795 258.64 59.5624 263.093 58.4873C263.712 59.1284 265.747 62.0614 266.487 63.0484L264.79 60.8072L267.087 62.5479L268.231 53.6138Z" fill="#E1E1E2"/>
<path d="M255.837 70.8453C255.762 66.8147 255.528 65.3459 257.018 61.5834C260.159 58.6795 258.64 59.5624 263.093 58.4873C264.293 64.6578 264.819 67.05 262.728 73.079L261.078 74.5863C258.172 74.0164 258.2 74.0547 255.837 70.8453Z" fill="#A9A9AA"/>
<path d="M224.862 43.8122C225.425 39.6644 225.228 38.6448 224.825 34.439C226.784 31.9737 227.525 32.6765 231.565 32.1741C227.834 35.198 226.531 39.2717 224.862 43.8122Z" fill="#E1E1E2"/>
<path d="M215.956 7.30713C221.544 8.63441 241.7 19.7411 246.612 23.2392C248.141 26.1403 247.456 28.5118 247.072 31.8825C242.225 30.3218 232.897 19.2686 228.406 15.9597C222.284 11.4464 218.225 15.2699 215.956 7.30713Z" fill="#E1E1E2"/>
<path d="M190.718 31.9067C193.137 32.9181 193.259 32.9304 194.918 34.8857C195.162 37.9967 192.256 42.4426 190.672 45.9389L190.062 46.1067C184.943 42.5269 188 35.942 190.718 31.9067Z" fill="#E1E1E2"/>
<path d="M215.178 53.9863C216.762 56.5125 216.828 57.987 216.181 60.6237C212.534 63.1911 213.322 62.4337 208.409 62.9886L206.806 59.8748C208.119 56.5238 211.4 55.8067 215.178 53.9863Z" fill="#E1E1E2"/>
<defs>
<linearGradient id="paint0_linear_8806_5979" x1="134.517" y1="0" x2="134.517" y2="203.844" gradientUnits="userSpaceOnUse">
<stop stop-color="#7A96B0"/>
<stop offset="1" stop-color="#333F4A"/>
</linearGradient>
</defs>
</svg>
