<svg width="196" height="171" viewBox="0 0 196 171" fill="none" xmlns="http://www.w3.org/2000/svg">
<path d="M2.19445 104.641C2.07164 104.113 1.94882 103.584 1.82601 103.057C-2.89149 80.5603 1.61884 57.1126 14.3473 37.972C30.101 14.6582 50.7992 5.15072 77.3473 0C75.5726 1.42945 73.872 2.94703 72.2501 4.54708C55.6976 20.8035 50.5245 37.2361 50.3332 59.62C51.7704 79.1768 59.7992 96.4971 74.8573 109.328C89.1345 121.419 107.624 127.362 126.273 125.844C142.446 124.522 155.528 118.223 167.875 107.991C160.097 131.721 147.151 150.046 124.342 161.603C103.808 172.045 79.9423 173.826 58.0854 166.543C36.5866 159.429 18.866 143.944 8.9285 123.594C6.43006 118.523 3.17789 110.126 2.19445 104.641Z" fill="#D0D0D0"/>
<path d="M2.19445 104.641C2.07164 104.113 1.94882 103.584 1.82601 103.057C-2.89149 80.5603 1.61884 57.1126 14.3473 37.972C30.101 14.6582 50.7992 5.15072 77.3473 0C75.5726 1.42945 73.872 2.94703 72.2501 4.54708C55.6976 20.8035 50.5245 37.2361 50.3332 59.62L48.7076 60.1412C47.9379 58.2805 48.2782 56.9898 48.4788 54.9773L47.3398 55.6728C45.7507 71.4821 38.0257 86.0382 25.8223 96.2169C20.3332 100.757 9.47882 106.066 2.19445 104.641Z" fill="#E1E1E2"/>
<path d="M110.873 29.1887L111.586 28.0217C117.446 18.546 124.917 11.9883 136.048 9.48373C144.727 7.45156 153.86 9.08066 161.3 13.9877C172.551 21.4021 175.809 30.6866 178.2 42.9536C186.538 47.0639 188.607 48.08 193.521 55.8159C202.021 80.305 184.622 90.0431 162.492 89.2155C151.414 89.8669 109.349 90.4265 99.7322 88.0428C94.6585 86.7643 89.9813 84.2447 86.1216 80.7118C80.325 75.4318 76.9819 67.9817 76.8909 60.1417C76.8328 52.1949 79.9368 44.5518 85.5206 38.8958C93.2278 30.949 100.465 29.4539 110.873 29.1887Z" fill="url(#paint0_linear_8806_5976)"/>
<defs>
<linearGradient id="paint0_linear_8806_5976" x1="97.8587" y1="0" x2="97.8587" y2="170.959" gradientUnits="userSpaceOnUse">
<stop stop-color="#7A96B0"/>
<stop offset="1" stop-color="#333F4A"/>
</linearGradient>
</defs>
</svg>
