<svg width="226" height="192" viewBox="0 0 226 192" fill="none" xmlns="http://www.w3.org/2000/svg">
<path d="M137.023 182.688C125.276 188.791 110.646 191.796 97.4779 191.97C71.9686 192.404 47.3282 182.704 28.9607 165C10.5304 146.912 0.104469 122.203 0.00603175 96.3823C-0.279906 71.013 9.61075 46.5876 27.4682 28.5633C45.667 10.271 70.4105 -0.00890663 96.2151 0.000466849C121.723 -0.0792077 146.21 10.0423 164.219 28.1124C185.201 49.079 192.12 72.8858 192.129 101.756C201.448 112.497 202.91 116.487 205.151 130.439C212.398 133.496 218.163 136.284 221.754 143.759C228.926 157.517 225.045 171.667 211.123 179.025C204.082 182.744 199.301 182.475 191.463 182.317C183.12 182.28 142.938 181.066 137.023 182.688Z" fill="#F0AA01"/>
<path d="M129.691 114.79C130.947 112.676 132.297 110.615 133.732 108.615C140.069 99.7758 149.697 93.8461 160.441 92.1533C173.95 90.122 181.92 94.1711 192.129 101.756C201.448 112.497 202.91 116.487 205.151 130.439C212.398 133.496 218.163 136.284 221.754 143.759C228.926 157.517 225.045 171.667 211.123 179.025C204.082 182.744 199.301 182.475 191.463 182.317C183.12 182.28 142.938 181.066 137.023 182.688C124.469 180.643 115 185.796 101.397 172.273C95.1761 166.109 91.7224 157.686 91.8255 148.93C91.7936 139.774 95.4827 130.999 102.045 124.614C110.032 116.84 118.901 114.624 129.691 114.79Z" fill="white"/>
</svg>
