<svg width="225" height="198" viewBox="0 0 225 198" fill="none" xmlns="http://www.w3.org/2000/svg">
<path d="M7.78448 120.434C-9.87802 85.6692 3.93131 39.5161 34.9344 16.7948C53.5532 3.14142 76.8407 -2.52676 99.6501 1.04453C122.197 4.70113 142.363 17.1463 155.75 35.6505C171.838 57.8019 173.347 81.8569 169.184 107.76C170.806 107.999 173.759 108.314 175.184 108.899C194.272 115.223 201.219 126.359 204.472 144.937C219.5 150.88 229.203 163.852 222.622 180.162C219.988 186.667 214.878 191.87 208.409 194.616C196.681 199.668 137.225 195.01 121.109 196.097C113.094 196.641 101.459 191.073 97.0718 184.043C95.2531 182.534 92.0094 175.616 90.9219 173.338C57.6219 174.594 18.6501 153.57 7.78448 120.434Z" fill="#E1E1E2"/>
<path d="M169.184 107.76C170.806 107.999 173.759 108.314 175.184 108.899C194.272 115.223 201.219 126.359 204.472 144.937C219.5 150.88 229.203 163.852 222.622 180.162C219.988 186.667 214.878 191.87 208.409 194.616C196.681 199.668 137.225 195.01 121.109 196.097C113.094 196.641 101.459 191.073 97.0718 184.043C95.2531 182.534 92.0094 175.616 90.9219 173.338C86.8906 149.764 98.3753 138.441 118.794 130.895L126.547 130.398C130.175 128.598 133.194 123.902 134.628 120.228C142.147 114.163 144.285 112.075 153.772 109.38C159.744 107.338 163.025 107.724 169.184 107.76Z" fill="url(#paint0_linear_8806_5978)"/>
<path d="M7.78448 120.434C-9.87802 85.6692 3.93131 39.5161 34.9344 16.7948C53.5532 3.14142 76.8407 -2.52676 99.6501 1.04453C122.197 4.70113 142.363 17.1463 155.75 35.6505C171.838 57.8019 173.347 81.8569 169.184 107.76C163.025 107.724 159.744 107.338 153.772 109.38C152.722 99.8069 151.906 100.588 149.244 92.9768C148.803 91.7039 148.681 79.1134 148.175 76.456C147.163 71.1731 145.888 73.36 141.978 70.1599C138.8 67.5644 137.553 60.5042 137.375 56.5871C140.881 55.4801 144.106 62.0724 148.869 58.8123C152.319 46.3353 142.578 49.1933 138.688 44.155L141.809 43.3714C134.075 39.9763 137.966 41.5726 134.356 35.7527C133.559 35.5849 132.772 35.3946 131.984 35.1828L131.103 34.9419C127.241 33.9042 119.113 23.8165 115.081 20.4439C108.847 15.2248 108.078 18.7632 102.313 15.7075C94.5126 29.045 90.7064 38.0566 74.8251 45.068C73.7564 45.5404 74.2251 45.2199 73.4001 46.2997C72.322 50.6181 68.2251 59.5875 65.2064 62.7661L63.7158 62.3527C63.3783 60.9345 63.0969 59.9737 62.9376 58.5105C61.8688 61.0217 61.8126 62.0649 61.8501 64.7907C57.6876 69.0397 29.0844 95.0492 25.8969 96.3784L23.6095 93.0733L23.3376 92.18L22.3345 93.1474C22.5595 97.4208 23.8251 99.9422 20.3658 102.725C14.8908 107.136 8.55317 102.73 6.5563 112.551C6.20005 114.323 7.6251 118.25 7.78448 120.434Z" fill="#E1E1E2"/>
<path d="M102.313 15.7075C101.413 13.8871 100.729 12.5581 99.688 10.8202C107.338 9.56795 134.3 27.2341 141.182 31.1082C143.488 32.4055 142.147 40.9184 141.809 43.3714C134.075 39.9763 137.966 41.5726 134.356 35.7527C133.559 35.5849 132.772 35.3946 131.984 35.1828L131.103 34.9419C127.241 33.9042 119.113 23.8165 115.081 20.4439C108.847 15.2248 108.078 18.7632 102.313 15.7075Z" fill="#E1E1E2"/>
<path d="M62.9376 58.5105C61.2126 55.2523 60.3688 53.9166 61.4095 50.4024C63.8095 42.2363 67.972 43.6189 73.4001 46.2997C72.322 50.6181 68.2251 59.5875 65.2064 62.7661L63.7158 62.3527C63.3783 60.9345 63.0969 59.9737 62.9376 58.5105Z" fill="#E1E1E2"/>
<path d="M60.6409 19.7792C67.6721 19.064 73.2503 17.9636 77.6378 23.5877C78.519 33.4795 57.8471 33.0643 55.3064 37.2598C49.6533 46.6071 50.5065 53.1366 42.6971 63.5027C39.2096 66.6288 37.4003 68.0207 32.8721 67.8454C22.7753 61.388 30.4533 37.616 35.7408 29.3448C41.2814 28.3625 53.469 22.2782 60.6409 19.7792Z" fill="#E1E1E2"/>
<path d="M159.313 78.5386C170.366 84.2386 166.1 94.8231 160.607 102.448C150.566 96.1232 152.028 86.3289 159.313 78.5386Z" fill="#A9A9AA"/>
<path d="M13.3347 76.4814C16.3065 76.7683 17.5346 76.5846 19.8127 78.4893C21.1814 81.3913 20.4503 83.5622 19.8972 86.6976C16.8878 87.409 15.6128 86.901 13.4471 85.1566C12.0784 81.8646 12.7347 79.9412 13.3347 76.4814Z" fill="#E1E1E2"/>
<path d="M27.0878 77.5957L28.3815 78.1L28.6441 79.3551L24.8659 83.0698L23.6379 83.4316C23.4504 81.3826 25.4753 79.6897 27.0878 77.5957Z" fill="#E1E1E2"/>
<path d="M111.444 59.7571C111.575 57.4428 113.731 53.4507 114.585 50.3143C112.785 48.8698 112.728 48.8398 111.35 47.011L111.913 45.5235C117.528 41.2511 132.05 40.9165 138.688 44.155C142.578 49.1933 152.319 46.3353 148.869 58.8123C144.106 62.0724 140.881 55.4801 137.375 56.5871C137.553 60.5042 138.8 67.5644 141.978 70.1599C145.888 73.36 147.163 71.1731 148.175 76.456C148.681 79.1134 148.803 91.7039 149.244 92.9768C151.906 100.588 152.722 99.8069 153.772 109.38C144.285 112.075 142.147 114.163 134.628 120.228C133.194 123.902 130.175 128.598 126.547 130.398L118.794 130.895C118.035 127.877 117.641 123.031 118.916 120.425L123.303 119.947C123.425 115.504 117.247 113.32 117.238 106.766C118.972 103.964 120.181 102.657 120.191 99.4003C118.531 95.5113 119.328 96.758 115.344 94.3265C113.956 90.7055 116.403 83.7879 117.266 79.7769C117.941 76.5937 122.103 75.2768 125.131 73.7245L124.297 71.9539C120.913 71.3277 119.31 70.4935 116.235 69.1287C113.647 67.0553 112.681 63.0669 111.444 59.7571Z" fill="#B8B7B7"/>
<path d="M126.547 130.398L130.306 124.062C131.488 118.794 127.156 114.744 126.088 110.051C125.384 106.976 129.819 101.256 132.988 100.735C135.8 103.598 138.575 106.227 138.894 109.956C136.803 113.292 135.453 116.3 134.628 120.228C133.194 123.902 130.175 128.598 126.547 130.398Z" fill="#E1E1E2"/>
<path d="M116.235 69.1287C114.388 73.6589 116.675 75.8965 111.256 78.6748C104.441 78.4714 98.4502 71.0157 98.2158 64.4861C100.747 58.5518 105.716 58.9266 111.444 59.7571C112.681 63.0669 113.647 67.0553 116.235 69.1287Z" fill="#E1E1E2"/>
<path d="M25.8969 96.3784C28.9251 100.803 34.4755 111.67 33.0224 116.835L31.2599 117.463C27.9599 116.198 26.8629 115.579 23.2348 115.86L25.1849 118.091L23.5349 119.872L21.388 119.853C17.9473 114.942 24.6129 113.948 25.4473 109.06C26.3942 103.569 23.2532 98.3243 23.6095 93.0733L25.8969 96.3784Z" fill="#E1E1E2"/>
<path d="M97.4284 72.1772C99.594 72.9562 100.063 74.1916 101.441 76.2088C102.107 83.4798 98.3191 84.6027 92.216 85.9047C89.5441 83.5576 88.2877 82.2856 87.7815 79.152C89.469 75.9979 94.0909 74.0219 97.4284 72.1772Z" fill="#E1E1E2"/>
<path d="M42.5377 104.2C43.5502 105.263 48.8659 111.328 49.1753 111.989C49.2221 115.185 47.244 117.032 45.219 119.741C40.6815 118.382 38.3846 117.004 37.4377 112.448C37.9065 109.012 40.2689 106.828 42.5377 104.2Z" fill="#E1E1E2"/>
<path d="M26.2158 121.765C27.3783 121.409 26.7502 121.447 28.1002 122.112L27.5002 125.749L26.3189 125.468L26.2158 121.765Z" fill="#E1E1E2"/>
<defs>
<linearGradient id="paint0_linear_8806_5978" x1="112.359" y1="0" x2="112.359" y2="197.019" gradientUnits="userSpaceOnUse">
<stop stop-color="#7A96B0"/>
<stop offset="1" stop-color="#333F4A"/>
</linearGradient>
</defs>
</svg>
