<svg width="278" height="201" viewBox="0 0 278 201" fill="none" xmlns="http://www.w3.org/2000/svg">
<path d="M38.3913 23.0509C40.2756 19.5256 42.8539 15.4865 45.6195 12.6229C53.1007 4.73236 63.4507 0.184345 74.3257 0.00249949C88.107 -0.140915 95.8506 5.89936 104.935 14.9935C128.101 6.01371 153.863 6.49457 176.673 16.3339C200.073 26.432 218.513 45.3973 227.944 69.0691C232.782 81.2462 233.973 91.3264 235.304 104.223C250.21 114.87 254.297 121.148 257.401 139.349C281.466 149.04 285.554 178.759 261.235 188.572C245.551 194.899 213.141 189.133 195.647 190.926C191.382 191.152 182.682 190.577 179.269 191.532C164.673 200.42 139.154 202.208 122.476 199.458C97.5663 195.184 75.3382 181.272 60.6101 160.735C46.3038 140.743 39.6944 115.01 43.7819 90.6749C30.8163 90.7968 20.4569 90.5765 10.285 80.7719C3.83503 74.6069 0.122558 66.1052 0.000682685 57.1798C-0.0555673 48.4034 3.3663 39.9607 9.49755 33.688C17.7851 25.2612 27.0756 23.0144 38.3913 23.0509Z" fill="#F0AA01"/>
<path d="M38.3913 23.0509C40.2756 19.5256 42.8539 15.4865 45.6195 12.6229C53.1007 4.73236 63.4507 0.184345 74.3257 0.00249949C88.107 -0.140915 95.8506 5.89936 104.935 14.9935C111.094 24.6838 111.872 27.2512 113.401 38.6643C120.788 41.3929 128.063 45.7835 131.419 53.2785C134.222 59.5203 134.129 68.5414 131.588 74.8478C129.094 81.0409 123.994 85.6423 117.891 88.1863C105.048 93.5404 60.3381 90.4237 43.7819 90.6749C30.8163 90.7968 20.4569 90.5765 10.285 80.7719C3.83503 74.6069 0.122558 66.1052 0.000682685 57.1798C-0.0555673 48.4034 3.3663 39.9607 9.49755 33.688C17.7851 25.2612 27.0756 23.0144 38.3913 23.0509Z" fill="white"/>
<path d="M181.407 123.511C194.232 103.719 212.513 94.6165 235.304 104.223C250.21 114.87 254.297 121.148 257.401 139.349C281.466 149.04 285.554 178.759 261.235 188.572C245.551 194.899 213.141 189.133 195.647 190.926C191.382 191.152 182.682 190.577 179.269 191.532C169.538 190.536 162.694 189.159 154.96 182.291C148.173 176.348 144.085 167.906 143.626 158.896C143.213 149.937 146.485 141.198 152.682 134.712C161.119 125.758 169.754 123.725 181.407 123.511Z" fill="white"/>
</svg>
