<svg width="303" height="236" viewBox="0 0 303 236" fill="none" xmlns="http://www.w3.org/2000/svg">
<path d="M52.3558 31.8287C54.1652 28.6642 56.7245 24.4256 58.8808 21.5807C67.7495 9.907 80.959 2.30323 95.5183 0.488524C129.878 -3.8214 151.712 20.9311 155.312 53.2246L163.037 56.1201C211.553 26.8055 261.915 56.6394 266.968 111.769C280.178 116.179 290.734 122.578 297.146 135.571C299.575 140.415 301.018 145.69 301.403 151.093C305.537 167.923 293.8 185.841 279.803 194.132C278.171 195.101 270.737 198.942 270.09 199.915L271.337 201.748C277.618 208.854 278.471 218.812 272.678 226.479C269.387 230.853 264.484 233.727 259.056 234.457C239.546 237.05 236.031 215.492 234.503 201.545L234.193 201.006C228.849 200.903 222.278 200.594 217.028 200.872C225.859 213.846 224.303 224.651 210.7 233.052C192.371 238.505 184.675 227.967 181.328 211.21C181.046 207.799 180.587 204.197 180.212 200.775C174.306 200.818 166.525 200.653 160.759 200.964C166.393 209.822 169.506 220.013 160.365 228.078C148.065 242.084 130.759 233.231 125.987 216.657C125.087 212.307 124.534 206.419 123.981 201.901L123.615 200.665C106.618 197.168 91.9746 190.178 82.1496 175.258C79.3839 171.066 77.659 165.706 74.6871 161.918L72.0151 159.386C70.9745 156.374 71.9495 153.051 72.4933 149.757C72.1183 139.199 72.1276 134.719 75.3058 124.265C66.9526 124.337 58.5902 124.364 50.237 124.342C35.4808 124.214 23.3495 121.023 12.7277 109.99C4.14015 100.983 -0.444145 88.8813 0.0339801 76.4408C0.437105 64.0397 5.80889 52.322 14.9401 43.9177C26.2464 33.5122 37.712 31.1576 52.3558 31.8287Z" fill="url(#paint0_linear_8806_5970)"/>
<path d="M52.3558 31.8287C54.1652 28.6642 56.7245 24.4256 58.8808 21.5807C67.7495 9.907 80.959 2.30323 95.5183 0.488524C129.878 -3.8214 151.712 20.9311 155.312 53.2246L163.037 56.1201C192.362 73.626 188.987 114.48 155.425 122.942C143.265 126.01 116.321 124.028 102.512 123.972C95.7527 133.283 81.6809 154.646 74.6871 161.918L72.0151 159.386C70.9745 156.374 71.9495 153.051 72.4933 149.757C72.1183 139.199 72.1276 134.719 75.3058 124.265C66.9526 124.337 58.5902 124.364 50.237 124.342C35.4808 124.214 23.3495 121.023 12.7277 109.99C4.14015 100.983 -0.444145 88.8813 0.0339801 76.4408C0.437105 64.0397 5.80889 52.322 14.9401 43.9177C26.2464 33.5122 37.712 31.1576 52.3558 31.8287Z" fill="url(#paint1_linear_8806_5970)"/>
<path d="M79.5151 106.54C73.8432 106.585 54.5777 108.051 51.6058 103.891C51.5308 98.4008 91.6277 44.2296 97.1777 35.2517C98.3871 33.2945 99.4183 32.7227 101.631 32.5371L103.028 33.8316C104.79 39.3123 98.2746 76.7996 97.0746 85.3051C102.812 85.2264 119.978 84.4361 124.628 85.546L125.659 87.2201C125.125 94.432 107.856 116.506 102.512 123.972C95.7527 133.283 81.6809 154.646 74.6871 161.918L72.0151 159.386C70.9745 156.374 71.9495 153.051 72.4933 149.757C75.2776 137.786 77.5932 118.989 79.5151 106.54Z" fill="#F0AA01"/>
<path d="M156.887 196.989L160.759 200.964C166.393 209.822 169.506 220.013 160.365 228.078C148.065 242.084 130.759 233.231 125.987 216.657C125.087 212.307 124.534 206.419 123.981 201.901L123.615 200.665L123.924 199.674C125.649 200.107 127.853 200.507 129.268 201.443C136.609 201.906 157.084 210.912 156.887 196.989Z" fill="#589DE6"/>
<path d="M125.987 216.657C132.418 218.997 152.35 213.984 160.543 224.596C159.953 225.936 160.149 226.682 160.365 228.078C148.065 242.084 130.759 233.231 125.987 216.657Z" fill="#3181DC"/>
<path d="M123.924 199.674C125.649 200.107 127.853 200.507 129.268 201.443L130.14 201.895C134.228 203.986 143.115 206.431 144.962 207.61L142.243 206.5L142.403 207.844C138.409 207.674 134.134 207.57 130.168 207.269L123.981 201.901L123.615 200.665L123.924 199.674Z" fill="#63AEE6"/>
<path d="M123.924 199.674C122.359 193.629 118.862 178.523 125.631 175.497C132.681 176.165 149.987 191.547 156.887 196.989C157.084 210.912 136.609 201.906 129.268 201.443C127.853 200.507 125.649 200.107 123.924 199.674Z" fill="#83BEED"/>
<path d="M234.859 198.456C240.034 200.725 244.028 201.523 249.671 202.18C253.506 204.463 267.334 203.193 270.09 199.915L271.337 201.748C277.618 208.854 278.471 218.812 272.678 226.479C269.387 230.853 264.484 233.727 259.056 234.457C239.546 237.05 236.031 215.492 234.503 201.545L234.193 201.006L234.859 198.456Z" fill="#438EE1"/>
<path d="M234.859 198.456C240.034 200.725 244.028 201.523 249.671 202.18C253.506 204.463 267.334 203.193 270.09 199.915L271.337 201.748C271.225 204.493 272.547 206.315 273.681 209.087L272.622 210.9C269.218 211.927 267.897 209.857 263.697 209.368L263.978 211.42C255.906 212.137 244.843 207.466 237.653 203.843L238.112 203.766L237.606 202.667L234.503 201.545L234.193 201.006L234.859 198.456Z" fill="#63AEE6"/>
<path d="M233.2 191.301C232.712 186.895 231.456 179.874 232.712 175.9C238.778 171.464 262.29 192.899 268.215 197.609L270.09 199.915C267.334 203.193 253.506 204.463 249.671 202.18C244.028 201.523 240.034 200.725 234.859 198.456C233.715 196.198 233.575 193.834 233.2 191.301Z" fill="#83BEED"/>
<path d="M233.2 191.301C237.372 197.71 243.24 196.192 249.671 202.18C244.028 201.523 240.034 200.725 234.859 198.456C233.715 196.198 233.575 193.834 233.2 191.301Z" fill="#7CB6ED"/>
<path d="M211.346 195.414L217.028 200.872C225.859 213.846 224.303 224.651 210.7 233.052C192.371 238.505 184.675 227.967 181.328 211.21C181.046 207.799 180.587 204.197 180.212 200.775C191.35 199.737 200.846 203.834 209.743 200.345C211.956 198.023 211.431 199.267 211.346 195.414Z" fill="#589DE6"/>
<path d="M181.328 211.21C185.659 212.786 189.418 214.038 193.927 215.041C207.315 218.015 208.834 211.03 212.321 225.461C211.215 225.843 210.624 226.005 209.481 226.264C210.071 228.523 210.625 230.713 210.7 233.052C192.371 238.505 184.675 227.967 181.328 211.21Z" fill="#3181DC"/>
<path d="M192.306 180.894C194.406 182.551 197.106 184.576 199.093 186.283C203.706 189.43 207.015 191.88 211.346 195.414C211.431 199.267 211.956 198.023 209.743 200.345C200.846 203.834 191.35 199.737 180.212 200.775C179.706 194.392 179.04 189.035 178.14 182.709L177.212 180.229C181.646 181.846 187.974 184.016 192.306 180.894Z" fill="#7CB6ED"/>
<path d="M192.306 180.894C194.406 182.551 197.106 184.576 199.093 186.283C196.037 188.513 181.478 184.551 178.14 182.709L177.212 180.229C181.646 181.846 187.974 184.016 192.306 180.894Z" fill="#63AEE6"/>
<path d="M177.212 180.229C178.646 176.145 177.802 176.616 180.802 174.38C184.871 174.021 187.346 176.743 190.478 179.358L192.306 180.894C187.974 184.016 181.646 181.846 177.212 180.229Z" fill="#9ECAF0"/>
<defs>
<linearGradient id="paint0_linear_8806_5970" x1="151.122" y1="0" x2="151.122" y2="235.034" gradientUnits="userSpaceOnUse">
<stop stop-color="#7A96B0"/>
<stop offset="1" stop-color="#333F4A"/>
</linearGradient>
<linearGradient id="paint1_linear_8806_5970" x1="151.122" y1="0" x2="151.122" y2="235.034" gradientUnits="userSpaceOnUse">
<stop stop-color="#7A96B0"/>
<stop offset="1" stop-color="#333F4A"/>
</linearGradient>
</defs>
</svg>
