<svg width="302" height="236" viewBox="0 0 302 236" fill="none" xmlns="http://www.w3.org/2000/svg">
<path d="M52.6023 31.5978C54.2054 28.4765 56.4366 24.7664 58.5178 21.9544C67.1803 10.2198 80.2398 2.50911 94.696 0.590364C129.693 -4.18448 151.387 20.6027 155.418 53.3021L163.077 56.1892C210.908 26.6365 262.574 56.7919 266.802 111.774C284.268 117.08 292.968 125.178 299.962 142.019C305.427 167.95 295.865 190.403 269.568 199.09L273.899 205.148C274.865 207.462 275.887 209.745 276.627 212.136C277.583 222.82 269.821 233.854 258.796 234.823C253.968 235.226 249.168 233.728 245.427 230.648C236.568 223.482 235.752 212.804 234.646 202.5L234.13 201.01C229.096 200.888 221.933 200.5 217.077 200.883L221.099 207.381C227.427 226.021 207.28 243.359 191.165 230.689C182.221 223.659 181.377 211.184 180.234 200.704C175.368 200.689 165.402 200.168 161.249 201.757C163.865 206.16 164.484 207.279 166.068 212.12C166.227 218.806 165.149 223.2 160.733 228.456C157.612 232.14 153.13 234.39 148.312 234.688C142.987 235.032 137.755 233.231 133.771 229.686C126.327 223.156 125.249 214.735 124.63 205.51L123.618 200.314C121.012 199.976 117.543 199.425 115.049 198.749C99.8897 194.58 87.0647 184.449 79.4897 170.666C71.4834 156.063 70.4898 140.105 75.2148 124.301C67.0679 124.368 58.9117 124.393 50.7648 124.377C35.7835 124.269 23.7084 121.314 12.8053 110.04C4.37719 101.263 -0.225844 89.5015 0.00853114 77.3366C0.177281 64.9018 5.35222 53.0603 14.3616 44.4807C25.7335 33.6731 37.6585 31.1535 52.6023 31.5978Z" fill="url(#paint0_linear_8806_5971)"/>
<path d="M52.6023 31.5978C54.2054 28.4765 56.4366 24.7664 58.5178 21.9544C67.1803 10.2198 80.2398 2.50911 94.696 0.590364C129.693 -4.18448 151.387 20.6027 155.418 53.3021L163.077 56.1892C182.09 68.3794 189.027 86.5086 177.505 107.642C173.221 115.48 163.002 121.393 154.349 123.152C129.609 126.33 100.068 122.799 75.2148 124.301C67.0679 124.368 58.9117 124.393 50.7648 124.377C35.7835 124.269 23.7084 121.314 12.8053 110.04C4.37719 101.263 -0.225844 89.5015 0.00853114 77.3366C0.177281 64.9018 5.35222 53.0603 14.3616 44.4807C25.7335 33.6731 37.6585 31.1535 52.6023 31.5978Z" fill="url(#paint1_linear_8806_5971)"/>
<path d="M180.234 200.704C186.459 202.675 209.484 209.773 215.793 208.554C216.749 209.458 216.609 209.2 217.959 209.696L221.099 207.381C227.427 226.021 207.28 243.359 191.165 230.689C182.221 223.659 181.377 211.184 180.234 200.704Z" fill="#438EE1"/>
<path d="M180.449 198.211C179.334 195.277 176.962 181.202 178.012 177.697C179.184 176.39 179.681 175.31 181.649 175.424C188.924 175.842 208.124 192.582 213.346 197.205L217.077 200.883L221.099 207.381L217.959 209.696C216.609 209.2 216.749 209.458 215.793 208.554C209.484 209.773 186.459 202.675 180.234 200.704L180.449 198.211Z" fill="#83BEED"/>
<path d="M180.449 198.211C186.862 199.134 193.49 201.837 202.021 202.587L203.906 203.514L203.925 204.454C208.884 205.793 212.034 204.21 215.334 207.101L215.793 208.554C209.484 209.773 186.459 202.675 180.234 200.704L180.449 198.211Z" fill="#63AEE6"/>
<path d="M213.346 197.205L217.077 200.883L221.099 207.381L217.959 209.696C216.609 209.2 216.749 209.458 215.793 208.554L215.334 207.101C212.034 204.21 208.884 205.793 203.925 204.454L203.906 203.514L202.021 202.587C204.862 201.074 210.224 202.934 213.815 202.032L212.437 199.5L213.346 197.205Z" fill="#7CB6ED"/>
<path d="M233.568 193.522C235.649 195.264 236.127 195.594 236.887 198.206C242.184 199.256 270.899 205.716 273.899 205.148C274.865 207.462 275.887 209.745 276.627 212.136C277.583 222.82 269.821 233.854 258.796 234.823C253.968 235.226 249.168 233.728 245.427 230.648C236.568 223.482 235.752 212.804 234.646 202.5L234.13 201.01L233.568 193.522Z" fill="#438EE1"/>
<path d="M233.568 193.522C235.649 195.264 236.127 195.594 236.887 198.206C242.184 199.256 270.899 205.716 273.899 205.148C274.865 207.462 275.887 209.745 276.627 212.136C273.224 209.619 245.165 207.092 240.177 206.938C236.962 206.839 236.53 205.048 234.646 202.5L234.13 201.01L233.568 193.522Z" fill="#63AEE6"/>
<path d="M232.471 183.69C238.94 186.545 253.002 193.496 259.499 191.105L264.365 194.193C265.471 195.228 268.733 198.126 269.568 199.09L273.899 205.148C270.899 205.716 242.184 199.256 236.887 198.206C236.127 195.594 235.649 195.264 233.568 193.522C233.502 191.291 232.752 186.128 232.471 183.69Z" fill="#7CB6ED"/>
<path d="M232.471 183.69C232.162 180.385 231.59 178.544 233.277 175.784C240.243 172.449 253.752 186.324 259.499 191.105C253.002 193.496 238.94 186.545 232.471 183.69Z" fill="#9ECAF0"/>
<path d="M124.63 205.655C126.487 205.52 134.287 204.914 135.599 205.322C145.34 208.345 155.634 212.081 166.068 212.264C166.227 218.95 165.149 223.344 160.734 228.6C157.612 232.284 153.13 234.534 148.312 234.833C142.987 235.177 137.755 233.375 133.771 229.83C126.327 223.3 125.249 214.879 124.63 205.655Z" fill="#438EE1"/>
<path d="M121.659 180.677C126.993 184.583 140.756 194.546 147.299 189.616C151.884 192.622 158.193 196.846 160.546 201.937L161.249 201.757C163.865 206.16 164.484 207.279 166.068 212.12C155.634 211.937 145.34 208.201 135.599 205.178C134.287 204.77 126.487 205.375 124.63 205.51L123.618 200.314L123.393 192.305C122.249 188.888 122.015 184.357 121.659 180.677Z" fill="#7CB6ED"/>
<path d="M123.393 192.305C125.362 194.474 124.602 196.644 125.709 198.074C125.784 198.171 155.831 204.12 157.724 203.955C158.709 203.869 158.709 203.818 159.496 203.51L160.546 201.937L161.249 201.757C163.865 206.16 164.484 207.279 166.068 212.12C155.634 211.937 145.34 208.201 135.599 205.178C134.287 204.77 126.487 205.375 124.63 205.51L123.618 200.314L123.393 192.305Z" fill="#63AEE6"/>
<path d="M121.659 180.677C121.79 176.465 121.227 177.763 123.224 174.783C130.218 173.758 141.206 185.252 147.299 189.616C140.756 194.546 126.993 184.583 121.659 180.677Z" fill="#9ECAF0"/>
<defs>
<linearGradient id="paint0_linear_8806_5971" x1="150.721" y1="0" x2="150.721" y2="235.023" gradientUnits="userSpaceOnUse">
<stop stop-color="#7A96B0"/>
<stop offset="1" stop-color="#333F4A"/>
</linearGradient>
<linearGradient id="paint1_linear_8806_5971" x1="150.721" y1="0" x2="150.721" y2="235.023" gradientUnits="userSpaceOnUse">
<stop stop-color="#7A96B0"/>
<stop offset="1" stop-color="#333F4A"/>
</linearGradient>
</defs>
</svg>
