<svg width="255" height="237" viewBox="0 0 255 237" fill="none" xmlns="http://www.w3.org/2000/svg">
<path d="M98.4412 51.3954C107.307 30.1448 121.792 14.5652 143.432 5.81315C163.312 -2.12431 185.518 -1.92651 205.254 6.36527C225.018 14.7733 240.596 30.7372 248.515 50.699C256.371 70.731 255.926 93.0662 247.279 112.769C242.957 122.552 235.423 133.88 226.956 140.319C236.81 170.773 216.435 199.838 184.297 200.603C165.771 201.044 147.152 200.586 128.614 200.405C122.34 208.551 107.585 232.583 100.585 236.679L98.6071 236.747C96.4724 232.517 101.787 206.945 102.79 200.438C90.7199 200.599 78.6496 200.691 66.5784 200.714C47.0343 200.702 30.9055 197.776 16.4577 183.065C5.62792 172.018 -0.299322 157.079 0.0116469 141.614C0.206459 126.127 6.64886 111.376 17.8771 100.707C32.7384 86.4035 46.7287 84.2945 65.9587 84.556C74.0184 68.5433 82.963 59.8644 98.4412 51.3954Z" fill="url(#paint0_linear_8806_5974)"/>
<path d="M98.4412 51.3954C107.307 30.1448 121.792 14.5652 143.432 5.81315C163.312 -2.12431 185.518 -1.92651 205.254 6.36527C225.018 14.7733 240.596 30.7372 248.515 50.699C256.371 70.731 255.926 93.0662 247.279 112.769C242.957 122.552 235.423 133.88 226.956 140.319L226.604 139.438C219.867 122.824 210.075 117.527 194.634 111.11C193.87 102.594 192.788 95.7667 189.767 87.6942C183.358 70.7526 170.469 57.0589 153.943 49.636C136.089 41.7473 116.069 44.4647 98.4412 51.3954Z" fill="#F0AA01"/>
<path d="M105.57 182.967C100.555 182.962 79.7952 184.173 77.3296 180.643C78.449 173.496 116.806 121.983 122.491 112.271C123.531 110.493 125.196 109.438 127.378 109.143C131.881 113.912 124.143 152.422 123.38 161.566C129.19 161.622 146.415 160.685 150.944 162.196L151.652 163.958C150.915 170.833 133.792 193.075 128.614 200.405C122.34 208.551 107.585 232.583 100.585 236.679L98.6071 236.747C96.4724 232.517 101.787 206.945 102.79 200.438L105.57 182.967Z" fill="#F0AA01"/>
<defs>
<linearGradient id="paint0_linear_8806_5974" x1="127.051" y1="0" x2="127.051" y2="236.747" gradientUnits="userSpaceOnUse">
<stop stop-color="#7A96B0"/>
<stop offset="1" stop-color="#333F4A"/>
</linearGradient>
</defs>
</svg>
