<svg width="254" height="260" viewBox="0 0 254 260" fill="none" xmlns="http://www.w3.org/2000/svg">
<path d="M160.584 0.217243C187.429 -1.83105 213.305 10.7183 228.314 33.0688C243.324 55.4185 245.147 84.1135 233.089 108.183C221.023 132.256 196.946 147.973 170.059 149.338C129.21 151.414 94.2835 120.271 91.6903 79.4551C89.0972 38.6424 119.801 3.32913 160.584 0.217243Z" fill="#B8B7B7"/>
<path d="M156.485 3.86481C196.173 -1.70013 232.797 26.1025 238.1 65.8161C243.403 105.532 215.357 141.969 175.6 147.011C136.218 152.005 100.186 124.279 94.9315 84.9317C89.6765 45.5873 117.17 9.37847 156.485 3.86481Z" fill="#E1E1E2"/>
<path d="M180.208 55.4851C183.475 49.2242 194.452 31.3688 202.422 39.5959C208.302 40.8599 219.855 43.9734 219.8 51.017L218.663 52.6684C215.017 53.1466 213.913 52.1106 210.575 49.9921L209.241 50.3377C209.107 51.3231 208.846 51.5512 209.296 52.0451C213.431 56.6253 211.23 60.2462 213.857 63.9443C215.183 64.0713 216.154 64.1818 217.487 64.4027C222.207 71.8305 215.704 81.4857 223.019 86.0005C228.125 103.843 224.085 99.6142 215.672 112.199C211.482 118.464 222.238 119.497 200.994 121.904C202.833 118.511 204.545 113.099 206.818 111.465L210.022 110.96C210.693 108.727 208.475 103.496 207.647 101.098C210.969 96.5291 212.674 94.312 208.026 89.267C205.429 88.2161 206.542 88.2768 203.859 89.0311C194.35 98.8647 208.838 100.269 202.36 110.637C200.789 113.146 199.211 116.436 197.719 119.095C195.147 113.312 191.461 108.451 196.851 103.346C196.267 98.9199 192.685 96.784 192.685 94.0003C192.685 90.2399 197.498 89.8532 194.776 84.6804C191.532 82.7426 191.209 83.3139 190.199 80.5081C192.195 72.2503 192.306 68.6666 199.984 65.1854L199.874 64.1936C196.63 63.1711 191.919 62.2566 189.741 60.0189L180.208 55.4851Z" fill="#B8B7B7"/>
<path d="M180.208 55.4851C178.44 48.4739 181.131 49.0697 180.95 42.0025L179.435 41.0557L179.135 39.712L180.2 38.3296C182.773 37.7276 184.169 37.9635 186.782 38.1221C188.447 36.967 189.102 36.387 190.593 35.0031C193.584 34.6504 192.811 34.8469 195.92 36.6892C198.414 36.7461 197.482 37.0806 199.329 35.561C199.937 32.8381 200.087 33.9119 198.863 31.5141C186.939 27.1019 185.55 15.0315 172.514 14.846C171.188 14.8271 168.615 9.57778 167.834 8.15755C175.276 10.7006 200.97 22.8822 204.6 28.6302C205.666 32.7307 204.324 36.0334 202.422 39.5959C194.452 31.3688 183.475 49.2242 180.208 55.4851Z" fill="#B8B7B7"/>
<path d="M175.718 50.0575C179.19 52.3623 181.778 60.7921 180.839 65.0039C178.638 67.0735 179.008 66.4605 175.434 66.9134C171.314 64.2386 167.211 58.5174 168.876 53.3919C170.573 51.129 172.987 50.8016 175.718 50.0575Z" fill="#B8B7B7"/>
<path d="M227.675 70.031C236.94 71.5641 233.507 82.9527 229.632 88.2431C220.076 88.0916 223.714 75.2101 227.675 70.031Z" fill="#A9A9AA"/>
<path d="M140.319 37.09C143.079 37.3765 143.479 37.3938 145.564 39.1841C147.076 43.9837 143.173 47.4751 140.646 53.6831L139.273 53.7194C138.151 49.065 138.273 49.151 135.468 45.2619L140.319 37.09Z" fill="#B8B7B7"/>
<path d="M113.367 81.3248C116.424 82.753 120.665 94.5141 122.391 98.3203C122.048 99.9536 122.093 100.466 120.873 101.618C119.285 100.971 116.478 100.34 114.731 99.8826C111.826 96.8772 115.947 93.7424 115.835 89.705C115.792 88.153 113.947 83.0007 113.367 81.3248Z" fill="#B8B7B7"/>
<path d="M130.083 91.1941C132.384 94.2918 133.554 93.9084 135.438 96.9603C135.685 99.8276 133.652 101.982 131.919 104.554C131.571 104.349 131.225 104.136 130.883 103.915C128.528 102.416 126.059 100.869 125.432 98.1627C125.834 95.1921 127.952 93.5146 130.083 91.1941Z" fill="#E1E1E2"/>
<path d="M165.861 62.2872C169.144 62.9595 167.992 62.3299 170.304 64.5517C171.212 69.7395 168.229 71.5219 163.895 73.2665C160.696 71.2426 159.531 70.9309 159.745 67.2944C161.32 64.8042 163.375 63.8124 165.861 62.2872Z" fill="#B8B7B7"/>
<path d="M106.029 50.1731C107.215 50.0468 108.401 50.8698 109.347 51.5034L109.637 51.4426C110.096 53.9343 108.85 55.6694 107.684 58.0625L107.239 58.2155L105.976 57.3934L106.653 52.122L105.607 51.2027L106.029 50.1731Z" fill="#E1E1E2"/>
<path d="M116.794 68.4506L118.531 69.4598C117.95 71.5176 116.44 71.89 114.228 73.3851L113.755 73.5666C114.292 70.9644 115.024 70.3932 116.794 68.4506Z" fill="#E1E1E2"/>
<path d="M44.2783 47.1697C45.6277 44.5423 47.5058 41.4194 49.2577 39.0523C56.5494 29.1746 67.5423 22.6841 79.711 21.069C109.17 17.0497 127.431 37.9146 130.824 65.4395L137.271 67.8697C153.275 78.1308 159.115 93.3912 149.416 111.18C145.81 117.778 137.208 122.755 129.924 124.236C109.099 126.911 84.2328 123.939 63.3125 125.204C56.4548 125.26 49.5893 125.281 42.7316 125.268C30.121 125.176 19.9567 122.689 10.779 113.199C3.68453 105.811 -0.190105 95.9105 0.00718114 85.6707C0.149228 75.2035 4.50527 65.2359 12.089 58.014C21.6613 48.9166 31.6993 46.7958 44.2783 47.1697Z" fill="url(#paint0_linear_8810_8342)"/>
<path d="M224.582 114.658C221.023 68.377 177.534 42.9935 137.271 67.8697C153.275 78.1308 159.115 93.3912 149.416 111.18C145.81 117.778 137.208 122.755 129.924 124.236C109.099 126.911 84.2328 123.939 63.3125 125.204C59.3352 138.506 60.1716 151.939 66.9109 164.232C73.2872 175.833 84.0828 184.361 96.8433 187.871C109.604 191.38 204.775 195.469 226.91 188.157C249.046 180.845 257.095 161.945 252.495 140.118C246.608 125.941 239.284 119.125 224.582 114.658Z" fill="url(#paint1_linear_8810_8342)"/>
<path d="M176.946 208.787C173.698 207.557 170.029 208.184 167.375 210.425C164.712 212.667 163.476 216.171 164.147 219.583C164.808 222.996 167.27 225.782 170.575 226.863C175.528 228.483 180.864 225.853 182.598 220.94C184.332 216.027 181.822 210.631 176.946 208.787Z" fill="white"/>
<path d="M213.8 238.472C210.361 236.606 206.069 237.864 204.182 241.287C202.304 244.71 203.54 249.012 206.95 250.912C210.39 252.824 214.729 251.577 216.626 248.131C218.523 244.684 217.258 240.352 213.8 238.472Z" fill="white"/>
<path d="M105.689 227.829C101.972 227.438 98.5997 230.02 98.0058 233.709C97.4118 237.398 99.8164 240.906 103.466 241.697C106.005 242.25 108.649 241.35 110.335 239.36C112.012 237.37 112.452 234.615 111.485 232.198C110.508 229.783 108.285 228.101 105.689 227.829Z" fill="white"/>
<path d="M133.529 248.125C130.674 246.565 127.091 247.611 125.529 250.463C123.968 253.315 125.002 256.898 127.857 258.468C130.712 260.039 134.305 258.995 135.876 256.141C137.447 253.28 136.393 249.69 133.529 248.125Z" fill="white"/>
<path d="M121.199 208.795C119.331 207.786 117.061 207.863 115.26 208.997C113.459 210.13 112.414 212.145 112.51 214.27C112.615 216.393 113.861 218.297 115.758 219.251C118.641 220.697 122.148 219.563 123.633 216.705C125.117 213.846 124.035 210.324 121.199 208.795Z" fill="white"/>
<path d="M157.872 243.145C155.984 242.21 153.733 242.368 151.99 243.558C150.246 244.749 149.278 246.787 149.46 248.89C149.642 250.993 150.945 252.833 152.871 253.705C155.774 255.022 159.203 253.766 160.564 250.885C161.934 248.003 160.736 244.559 157.872 243.145Z" fill="white"/>
<path d="M152.603 223.035C150.227 222.399 147.765 223.702 146.95 226.023C146.146 228.342 147.266 230.894 149.518 231.871C151.127 232.571 153.005 232.308 154.365 231.193C155.726 230.077 156.339 228.294 155.975 226.575C155.601 224.856 154.298 223.49 152.603 223.035Z" fill="white"/>
<path d="M180.414 240.249C178.038 239.246 175.298 240.364 174.301 242.743C173.305 245.122 174.436 247.857 176.821 248.841C179.187 249.821 181.908 248.699 182.895 246.333C183.882 243.966 182.77 241.247 180.414 240.249Z" fill="white"/>
<path d="M206.347 221.169C205.36 220.378 204.019 220.185 202.85 220.667C201.672 221.148 200.857 222.226 200.714 223.484C200.56 224.741 201.107 225.979 202.141 226.718C203.674 227.819 205.801 227.497 206.95 225.993C208.09 224.488 207.822 222.349 206.347 221.169Z" fill="white"/>
<defs>
<linearGradient id="paint0_linear_8810_8342" x1="126.87" y1="0" x2="126.87" y2="259.199" gradientUnits="userSpaceOnUse">
<stop stop-color="#7A96B0"/>
<stop offset="1" stop-color="#333F4A"/>
</linearGradient>
<linearGradient id="paint1_linear_8810_8342" x1="126.87" y1="0" x2="126.87" y2="259.199" gradientUnits="userSpaceOnUse">
<stop stop-color="#7A96B0"/>
<stop offset="1" stop-color="#333F4A"/>
</linearGradient>
</defs>
</svg>
