<svg width="269" height="245" viewBox="0 0 269 245" fill="none" xmlns="http://www.w3.org/2000/svg">
<path d="M46.8657 28.1519C48.294 25.371 50.2818 22.0655 52.1361 19.5602C59.8539 9.10524 71.4892 2.23548 84.3689 0.525982C115.549 -3.72814 134.877 18.3559 138.469 47.4892L145.293 50.0614C162.232 60.9222 168.413 77.0743 158.147 95.903C154.33 102.886 145.226 108.154 137.517 109.722C115.474 112.553 89.1549 109.407 67.0122 110.746C59.7537 110.805 52.487 110.828 45.2286 110.813C31.8811 110.716 21.1229 108.084 11.4088 98.0393C3.89983 90.22 -0.201214 79.7409 0.00760077 68.9026C0.157948 57.8239 4.76853 47.2737 12.7954 39.6299C22.9271 30.0009 33.5516 27.7561 46.8657 28.1519Z" fill="url(#paint0_linear_8810_8331)"/>
<path d="M237.706 99.5843C233.939 50.5984 187.908 23.7316 145.293 50.0614C162.232 60.9222 168.413 77.0743 158.147 95.903C154.33 102.886 145.226 108.154 137.517 109.722C115.474 112.553 89.1549 109.407 67.0122 110.746C62.8024 124.826 63.6878 139.043 70.8209 152.054C77.5698 164.334 88.9962 173.36 102.502 177.075C116.009 180.789 216.741 185.117 240.17 177.378C263.599 169.639 272.119 149.634 267.249 126.531C261.018 111.527 253.267 104.312 237.706 99.5843Z" fill="url(#paint1_linear_8810_8331)"/>
<path d="M187.177 194.573C183.929 193.344 180.26 193.97 177.607 196.211C174.943 198.453 173.708 201.957 174.378 205.37C175.039 208.782 177.501 211.568 180.806 212.649C185.759 214.27 191.095 211.64 192.829 206.727C194.563 201.814 192.053 196.417 187.177 194.573Z" fill="white"/>
<path d="M224.031 224.258C220.592 222.392 216.3 223.65 214.413 227.073C212.535 230.496 213.771 234.798 217.182 236.698C220.621 238.61 224.961 237.364 226.858 233.917C228.754 230.47 227.49 226.138 224.031 224.258Z" fill="white"/>
<path d="M115.92 213.615C112.203 213.224 108.831 215.806 108.237 219.495C107.643 223.184 110.048 226.692 113.698 227.483C116.237 228.036 118.881 227.136 120.567 225.146C122.243 223.156 122.684 220.401 121.716 217.984C120.739 215.569 118.517 213.887 115.92 213.615Z" fill="white"/>
<path d="M143.76 233.911C140.905 232.351 137.322 233.397 135.761 236.249C134.199 239.101 135.234 242.684 138.089 244.254C140.943 245.825 144.536 244.781 146.107 241.927C147.678 239.066 146.624 235.476 143.76 233.911Z" fill="white"/>
<path d="M131.431 194.582C129.563 193.572 127.292 193.649 125.491 194.783C123.69 195.917 122.646 197.932 122.741 200.056C122.847 202.179 124.092 204.083 125.989 205.037C128.873 206.483 132.379 205.349 133.864 202.491C135.349 199.633 134.266 196.11 131.431 194.582Z" fill="white"/>
<path d="M168.103 228.931C166.216 227.996 163.965 228.154 162.221 229.344C160.477 230.535 159.51 232.573 159.692 234.676C159.874 236.779 161.177 238.62 163.102 239.491C166.005 240.808 169.435 239.552 170.795 236.671C172.165 233.789 170.968 230.345 168.103 228.931Z" fill="white"/>
<path d="M162.834 208.821C160.458 208.185 157.996 209.488 157.182 211.809C156.377 214.128 157.498 216.68 159.749 217.657C161.359 218.357 163.236 218.094 164.597 216.979C165.957 215.863 166.57 214.081 166.206 212.361C165.833 210.642 164.53 209.276 162.834 208.821Z" fill="white"/>
<path d="M190.645 226.035C188.269 225.032 185.529 226.151 184.533 228.53C183.537 230.909 184.667 233.643 187.052 234.627C189.419 235.607 192.14 234.486 193.126 232.119C194.113 229.753 193.002 227.033 190.645 226.035Z" fill="white"/>
<path d="M216.578 206.955C215.591 206.164 214.25 205.971 213.081 206.453C211.903 206.934 211.089 208.012 210.945 209.27C210.792 210.527 211.338 211.766 212.372 212.504C213.905 213.605 216.032 213.284 217.182 211.779C218.322 210.274 218.053 208.135 216.578 206.955Z" fill="white"/>
<defs>
<linearGradient id="paint0_linear_8810_8331" x1="134.284" y1="0" x2="134.284" y2="244.985" gradientUnits="userSpaceOnUse">
<stop stop-color="#7A96B0"/>
<stop offset="1" stop-color="#333F4A"/>
</linearGradient>
<linearGradient id="paint1_linear_8810_8331" x1="134.284" y1="0" x2="134.284" y2="244.985" gradientUnits="userSpaceOnUse">
<stop stop-color="#7A96B0"/>
<stop offset="1" stop-color="#333F4A"/>
</linearGradient>
</defs>
</svg>
