<svg width="278" height="251" viewBox="0 0 278 251" fill="none" xmlns="http://www.w3.org/2000/svg">
<path d="M48.0868 29.0714C49.9617 25.6674 52.3505 21.8459 54.7436 18.8094C63.1384 8.23152 75.4896 1.54139 88.9358 0.288219C119.773 -2.81285 139.744 19.4928 142.484 48.7589L149.612 51.6104C192.858 24.1233 241.223 52.2447 245.023 102.323C258.029 107.116 267.295 112.46 273.39 125.912C278.123 136.235 278.439 148.042 274.266 158.604C270.152 168.805 262.039 176.875 251.815 180.934C238.573 186.334 200.846 184.287 184.415 184.135C179.284 191.274 164.826 213.658 158.68 217.319L156.869 217.256C155.325 213.503 159.812 189.884 160.765 184.303C144.943 184.342 117.608 185.899 103.096 181.62C75.2167 173.402 60.2822 141.918 69.0971 114.06L62.4196 114.09C43.1835 114.159 26.8036 116.185 11.968 101.159C4.0122 93.0001 -0.299711 81.9669 0.0162146 70.5757C0.298567 59.1621 5.14935 48.3398 13.4813 40.5333C23.9671 30.6594 34.4392 28.685 48.0868 29.0714Z" fill="url(#paint0_linear_8810_8258)"/>
<path d="M48.0868 29.0714C49.9617 25.6674 52.3505 21.8459 54.7436 18.8094C63.1384 8.23152 75.4896 1.54139 88.9358 0.288219C119.773 -2.81285 139.744 19.4928 142.484 48.7589L149.612 51.6104C177.407 66.904 172.158 106.953 143.566 112.614C123.02 116.683 91.1309 113.084 69.0971 114.06L62.4196 114.09C43.1835 114.159 26.8036 116.185 11.968 101.159C4.0122 93.0001 -0.299711 81.9669 0.0162146 70.5757C0.298567 59.1621 5.14935 48.3398 13.4813 40.5333C23.9671 30.6594 34.4392 28.685 48.0868 29.0714Z" fill="url(#paint1_linear_8810_8258)"/>
<path d="M163.204 168.105C157.965 168.131 140.502 169.411 137.475 165.85C139.332 158.094 173.408 111.992 180.021 101.925C180.954 100.504 182.099 100.452 183.525 100.468C187.225 105.614 180.503 139.425 179.535 148.492C185.055 148.452 200.643 147.855 205.251 148.992L205.989 150.616C204.771 157.548 189.657 176.791 184.415 184.135C179.284 191.274 164.826 213.658 158.68 217.319L156.869 217.256C155.325 213.503 159.812 189.884 160.765 184.303L163.204 168.105Z" fill="#F0AA01"/>
<path d="M172.73 233.139C177.357 232.018 182.045 234.797 183.277 239.398C184.508 244 181.843 248.745 177.269 250.091C174.207 250.988 170.909 250.152 168.639 247.919C166.37 245.687 165.481 242.397 166.334 239.327C167.188 236.257 169.633 233.889 172.73 233.139Z" fill="white"/>
<path d="M183.321 192.692C187.93 191.175 192.9 193.692 194.404 198.309C195.909 202.926 193.384 207.886 188.757 209.379C184.156 210.867 179.213 208.349 177.708 203.749C176.213 199.149 178.72 194.203 183.321 192.692Z" fill="white"/>
<path d="M110.089 208.57C114.021 207.058 118.437 209.004 119.976 212.928C121.516 216.853 119.598 221.284 115.683 222.848C111.734 224.426 107.248 222.487 105.699 218.527C104.142 214.566 106.113 210.098 110.089 208.57Z" fill="white"/>
<path d="M223.873 221.68C227.409 221.496 230.444 224.172 230.699 227.702C230.963 231.232 228.351 234.319 224.823 234.652C222.475 234.873 220.196 233.808 218.859 231.868C217.522 229.928 217.337 227.416 218.375 225.302C219.422 223.188 221.525 221.802 223.873 221.68Z" fill="white"/>
<path d="M124.427 231.453C127.585 229.755 131.526 230.953 133.206 234.121C134.887 237.29 133.664 241.221 130.488 242.883C127.33 244.531 123.433 243.323 121.771 240.18C120.099 237.036 121.287 233.137 124.427 231.453Z" fill="white"/>
<path d="M209.104 204.228C210.801 203.185 212.939 203.16 214.663 204.163C216.387 205.165 217.416 207.034 217.355 209.026C217.284 211.018 216.123 212.812 214.338 213.695C211.743 214.977 208.602 213.992 207.195 211.46C205.796 208.927 206.641 205.742 209.104 204.228Z" fill="white"/>
<path d="M198.117 240.27C200.72 238.976 203.896 239.999 205.251 242.577C206.614 245.153 205.673 248.35 203.131 249.774C201.424 250.724 199.339 250.689 197.677 249.66C196.014 248.631 195.038 246.787 195.126 244.837C195.223 242.885 196.366 241.137 198.117 240.27Z" fill="white"/>
<path d="M199.199 221.822C202.058 221.049 205.004 222.744 205.778 225.606C206.553 228.469 204.855 231.415 201.996 232.188C199.128 232.961 196.181 231.267 195.407 228.404C194.633 225.542 196.331 222.594 199.199 221.822Z" fill="white"/>
<path d="M106.764 237.614C108.62 237.078 110.626 237.584 111.998 238.937C113.379 240.29 113.915 242.28 113.414 244.143C112.913 246.006 111.444 247.453 109.57 247.927C106.737 248.648 103.852 246.965 103.096 244.148C102.33 241.333 103.967 238.424 106.764 237.614Z" fill="white"/>
<path d="M179.802 217.33C181.922 216.487 184.332 217.448 185.291 219.522C186.259 221.595 185.423 224.056 183.409 225.129C182.001 225.877 180.295 225.786 178.975 224.892C177.656 223.999 176.934 222.448 177.11 220.864C177.286 219.279 178.315 217.92 179.802 217.33Z" fill="white"/>
<path d="M155.251 233.132C157.397 232.372 159.763 233.443 160.617 235.559C161.461 237.675 160.485 240.082 158.4 241.012C156.975 241.647 155.321 241.452 154.089 240.505C152.849 239.558 152.233 238.01 152.471 236.472C152.717 234.934 153.782 233.653 155.251 233.132Z" fill="white"/>
<path d="M131.007 215.528C131.922 214.758 133.206 214.588 134.288 215.094C135.379 215.6 136.074 216.688 136.074 217.886C136.074 219.084 135.379 220.172 134.297 220.679C132.89 221.332 131.227 220.846 130.391 219.543C129.565 218.24 129.828 216.522 131.007 215.528Z" fill="white"/>
<path d="M236.206 199.114C240.921 198.275 245.434 201.345 246.393 206.029C247.343 210.714 244.387 215.304 239.725 216.372C236.602 217.086 233.338 216.054 231.201 213.676C229.063 211.298 228.377 207.947 229.424 204.923C230.462 201.898 233.057 199.674 236.206 199.114Z" fill="white"/>
<path d="M130.198 191.987C133.171 190.893 136.505 191.482 138.924 193.529C141.343 195.576 142.469 198.765 141.88 201.878C141.291 204.991 139.074 207.547 136.074 208.57C131.517 210.125 126.547 207.723 124.938 203.182C123.328 198.642 125.677 193.651 130.198 191.987Z" fill="white"/>
<defs>
<linearGradient id="paint0_linear_8810_8258" x1="138.591" y1="0" x2="138.591" y2="250.46" gradientUnits="userSpaceOnUse">
<stop stop-color="#7A96B0"/>
<stop offset="1" stop-color="#333F4A"/>
</linearGradient>
<linearGradient id="paint1_linear_8810_8258" x1="138.591" y1="0" x2="138.591" y2="250.46" gradientUnits="userSpaceOnUse">
<stop stop-color="#7A96B0"/>
<stop offset="1" stop-color="#333F4A"/>
</linearGradient>
</defs>
</svg>
