<svg width="294" height="251" viewBox="0 0 294 251" fill="none" xmlns="http://www.w3.org/2000/svg">
<path d="M154.149 48.008C164.512 27.9306 176.491 13.9349 199.252 6.65632C217.411 0.825161 237.202 2.25459 254.282 10.633C271.37 19.0692 284.273 33.8409 290.098 51.6355C295.964 69.5075 294.257 88.9223 285.361 105.564C281.412 112.931 276.064 119.905 269.47 125.23C268.75 123.72 268.006 122.223 267.227 120.74C261.035 109.001 252.356 105.579 240.063 101.81C239.745 94.5772 239.152 87.2873 236.6 80.4265C231.085 65.4541 219.612 53.2803 204.775 46.6512C187.88 39.0765 170.759 42.0038 154.149 48.008Z" fill="#F0AA01"/>
<path d="M47.9132 28.7811C49.3734 25.938 51.4057 22.5587 53.3014 19.9973C61.1917 9.30875 73.087 2.28545 86.2546 0.537738C118.132 -3.81147 137.892 18.7662 141.564 48.5506L148.54 51.1803C165.858 62.2839 172.177 78.797 161.682 98.0465C157.78 105.186 148.472 110.572 140.59 112.174C118.055 115.069 91.1476 111.852 68.5099 113.221C61.0893 113.282 53.6601 113.305 46.2395 113.29C32.5937 113.191 21.595 110.5 11.6638 100.231C3.987 92.2365 -0.205712 81.5231 0.00777065 70.4427C0.161478 59.1163 4.87511 48.3304 13.0814 40.5156C23.4395 30.6714 34.3015 28.3764 47.9132 28.7811Z" fill="url(#paint0_linear_8810_8257)"/>
<path d="M155.522 204.542C158.472 203.457 161.779 204.042 164.179 206.072C166.578 208.103 167.695 211.266 167.111 214.354C166.526 217.442 164.327 219.978 161.351 220.993C156.831 222.535 151.901 220.153 150.304 215.648C148.707 211.144 151.037 206.194 155.522 204.542Z" fill="white"/>
<path d="M169.947 233.278C174.536 232.166 179.187 234.923 180.409 239.487C181.631 244.052 178.987 248.76 174.449 250.094C171.412 250.984 168.14 250.155 165.889 247.94C163.638 245.726 162.756 242.462 163.603 239.417C164.449 236.371 166.875 234.022 169.947 233.278Z" fill="white"/>
<path d="M180.453 193.156C185.025 191.651 189.955 194.148 191.448 198.727C192.94 203.307 190.435 208.228 185.845 209.709C181.282 211.185 176.378 208.687 174.885 204.124C173.402 199.56 175.889 194.654 180.453 193.156Z" fill="white"/>
<path d="M107.808 208.906C111.709 207.406 116.089 209.337 117.616 213.23C119.143 217.123 117.241 221.518 113.358 223.07C109.44 224.636 104.99 222.712 103.454 218.783C101.909 214.854 103.864 210.422 107.808 208.906Z" fill="white"/>
<path d="M220.68 221.911C224.188 221.729 227.198 224.383 227.451 227.885C227.713 231.387 225.122 234.449 221.622 234.779C219.293 234.998 217.033 233.942 215.706 232.017C214.38 230.093 214.197 227.601 215.226 225.504C216.265 223.407 218.35 222.032 220.68 221.911Z" fill="white"/>
<path d="M122.032 231.606C125.164 229.921 129.074 231.11 130.74 234.253C132.407 237.396 131.194 241.296 128.044 242.944C124.911 244.579 121.046 243.381 119.396 240.263C117.738 237.144 118.916 233.276 122.032 231.606Z" fill="white"/>
<path d="M206.029 204.599C207.713 203.564 209.833 203.54 211.544 204.534C213.254 205.529 214.275 207.382 214.214 209.358C214.144 211.335 212.992 213.115 211.221 213.99C208.647 215.262 205.531 214.285 204.135 211.773C202.748 209.261 203.586 206.101 206.029 204.599Z" fill="white"/>
<path d="M195.13 240.352C197.713 239.068 200.863 240.083 202.207 242.64C203.559 245.196 202.626 248.367 200.104 249.78C198.411 250.722 196.343 250.688 194.694 249.667C193.044 248.646 192.076 246.817 192.163 244.882C192.259 242.946 193.394 241.212 195.13 240.352Z" fill="white"/>
<path d="M196.203 222.052C199.039 221.285 201.963 222.966 202.73 225.806C203.498 228.645 201.814 231.569 198.978 232.335C196.134 233.102 193.21 231.421 192.442 228.582C191.674 225.742 193.359 222.818 196.203 222.052Z" fill="white"/>
<path d="M104.51 237.717C106.351 237.186 108.34 237.687 109.702 239.03C111.072 240.372 111.604 242.346 111.107 244.194C110.609 246.042 109.152 247.478 107.293 247.948C104.483 248.663 101.621 246.994 100.871 244.199C100.112 241.406 101.735 238.521 104.51 237.717Z" fill="white"/>
<path d="M176.962 217.596C179.065 216.76 181.456 217.713 182.407 219.77C183.367 221.826 182.538 224.268 180.54 225.332C179.144 226.075 177.451 225.984 176.142 225.098C174.833 224.211 174.118 222.673 174.292 221.101C174.467 219.53 175.487 218.181 176.962 217.596Z" fill="white"/>
<path d="M152.608 233.272C154.737 232.517 157.084 233.58 157.931 235.679C158.768 237.778 157.8 240.166 155.732 241.088C154.318 241.718 152.678 241.525 151.456 240.585C150.225 239.646 149.615 238.111 149.85 236.585C150.095 235.059 151.151 233.788 152.608 233.272Z" fill="white"/>
<path d="M128.559 215.809C129.466 215.045 130.74 214.876 131.814 215.378C132.896 215.879 133.585 216.959 133.585 218.148C133.585 219.336 132.896 220.416 131.822 220.918C130.426 221.566 128.777 221.084 127.948 219.791C127.128 218.498 127.389 216.795 128.559 215.809Z" fill="white"/>
<path d="M232.914 199.526C237.591 198.694 242.068 201.739 243.019 206.386C243.961 211.033 241.029 215.586 236.404 216.645C233.307 217.354 230.069 216.33 227.949 213.972C225.828 211.613 225.148 208.288 226.186 205.288C227.216 202.288 229.79 200.081 232.914 199.526Z" fill="white"/>
<path d="M243.019 101.81C239.168 51.7293 192.108 24.262 148.54 51.1803C165.858 62.2839 172.177 78.797 161.682 98.0465C157.78 105.186 148.472 110.572 140.59 112.174C118.055 115.069 91.1476 111.852 68.5099 113.221C64.2061 127.616 65.1112 142.151 72.4038 155.453C79.3035 168.007 90.9853 177.235 104.793 181.032C118.601 184.83 221.585 189.254 245.538 181.342C269.491 173.43 278.201 152.979 273.222 129.359C266.852 114.019 258.928 106.643 243.019 101.81Z" fill="url(#paint1_linear_8810_8257)"/>
<path d="M127.756 192.456C130.705 191.371 134.013 191.955 136.412 193.986C138.812 196.017 139.929 199.18 139.344 202.268C138.76 205.356 136.561 207.892 133.585 208.906C129.065 210.449 124.135 208.066 122.538 203.562C120.941 199.058 123.271 194.107 127.756 192.456Z" fill="white"/>
<defs>
<linearGradient id="paint0_linear_8810_8257" x1="146.764" y1="0" x2="146.764" y2="250.461" gradientUnits="userSpaceOnUse">
<stop stop-color="#7A96B0"/>
<stop offset="1" stop-color="#333F4A"/>
</linearGradient>
<linearGradient id="paint1_linear_8810_8257" x1="146.764" y1="0" x2="146.764" y2="250.461" gradientUnits="userSpaceOnUse">
<stop stop-color="#7A96B0"/>
<stop offset="1" stop-color="#333F4A"/>
</linearGradient>
</defs>
</svg>
