<svg width="259" height="236" viewBox="0 0 259 236" fill="none" xmlns="http://www.w3.org/2000/svg">
<path d="M45.031 27.0499C46.4034 24.3778 48.3135 21.2017 50.0952 18.7944C57.5108 8.7488 68.6906 2.14797 81.0661 0.505391C111.026 -3.5822 129.597 17.6373 133.048 45.6302L139.605 48.1017C155.881 58.5373 161.82 74.0571 151.956 92.1487C148.289 98.8587 139.541 103.92 132.133 105.427C110.954 108.147 85.6648 105.124 64.3888 106.41C57.4146 106.467 50.4323 106.489 43.458 106.475C30.6331 106.382 20.296 103.853 10.9622 94.2013C3.74717 86.6882 -0.193337 76.6193 0.00730322 66.2053C0.151764 55.5602 4.58186 45.4231 12.2945 38.0785C22.0296 28.8264 32.2382 26.6695 45.031 27.0499Z" fill="url(#paint0_linear_8810_8275)"/>
<path d="M146.167 192.238C148.939 191.219 152.047 191.768 154.303 193.677C156.558 195.585 157.608 198.558 157.058 201.46C156.509 204.363 154.442 206.746 151.645 207.699C147.397 209.149 142.764 206.91 141.263 202.676C139.762 198.443 141.952 193.79 146.167 192.238Z" fill="white"/>
<path d="M159.724 219.246C164.038 218.2 168.409 220.791 169.557 225.082C170.705 229.372 168.22 233.796 163.956 235.05C161.101 235.887 158.026 235.108 155.91 233.025C153.794 230.944 152.966 227.877 153.762 225.015C154.557 222.153 156.837 219.945 159.724 219.246Z" fill="white"/>
<path d="M169.598 181.537C173.895 180.122 178.529 182.469 179.931 186.773C181.334 191.078 178.98 195.702 174.666 197.094C170.377 198.482 165.768 196.134 164.366 191.845C162.971 187.556 165.309 182.945 169.598 181.537Z" fill="white"/>
<path d="M101.323 196.34C104.989 194.93 109.106 196.744 110.541 200.403C111.976 204.062 110.189 208.193 106.539 209.651C102.857 211.123 98.6741 209.315 97.2307 205.623C95.7791 201.93 97.6161 197.764 101.323 196.34Z" fill="white"/>
<path d="M207.405 208.563C210.702 208.391 213.532 210.886 213.77 214.177C214.016 217.468 211.58 220.346 208.291 220.656C206.101 220.862 203.977 219.869 202.731 218.061C201.484 216.252 201.312 213.911 202.28 211.94C203.256 209.969 205.216 208.676 207.405 208.563Z" fill="white"/>
<path d="M114.691 217.674C117.635 216.091 121.309 217.208 122.876 220.162C124.442 223.116 123.302 226.781 120.342 228.33C117.397 229.867 113.764 228.741 112.214 225.81C110.656 222.879 111.763 219.244 114.691 217.674Z" fill="white"/>
<path d="M193.636 192.292C195.218 191.319 197.211 191.296 198.819 192.231C200.426 193.166 201.386 194.908 201.328 196.765C201.263 198.623 200.18 200.295 198.515 201.118C196.096 202.314 193.168 201.395 191.856 199.034C190.552 196.673 191.339 193.703 193.636 192.292Z" fill="white"/>
<path d="M183.392 225.894C185.82 224.687 188.781 225.642 190.044 228.045C191.315 230.447 190.437 233.427 188.067 234.755C186.476 235.641 184.532 235.608 182.982 234.649C181.432 233.689 180.522 231.97 180.604 230.152C180.694 228.332 181.76 226.703 183.392 225.894Z" fill="white"/>
<path d="M184.401 208.695C187.066 207.974 189.814 209.554 190.536 212.223C191.257 214.892 189.674 217.639 187.009 218.36C184.336 219.08 181.588 217.5 180.866 214.832C180.145 212.163 181.727 209.415 184.401 208.695Z" fill="white"/>
<path d="M98.2231 223.418C99.9536 222.918 101.823 223.39 103.103 224.652C104.39 225.913 104.891 227.768 104.423 229.505C103.956 231.242 102.586 232.591 100.839 233.033C98.1985 233.705 95.5085 232.136 94.8032 229.51C94.0897 226.885 95.6152 224.173 98.2231 223.418Z" fill="white"/>
<path d="M166.317 204.507C168.294 203.721 170.541 204.617 171.435 206.55C172.337 208.483 171.558 210.778 169.68 211.778C168.368 212.476 166.777 212.39 165.546 211.557C164.316 210.724 163.644 209.279 163.808 207.802C163.972 206.324 164.931 205.057 166.317 204.507Z" fill="white"/>
<path d="M143.428 219.24C145.429 218.531 147.635 219.529 148.431 221.502C149.218 223.475 148.308 225.719 146.364 226.586C145.035 227.178 143.494 226.996 142.345 226.113C141.189 225.23 140.615 223.788 140.836 222.354C141.066 220.92 142.058 219.725 143.428 219.24Z" fill="white"/>
<path d="M120.826 202.827C121.678 202.109 122.876 201.951 123.885 202.422C124.901 202.894 125.549 203.909 125.549 205.025C125.549 206.142 124.901 207.157 123.893 207.629C122.581 208.238 121.031 207.785 120.251 206.57C119.481 205.355 119.727 203.754 120.826 202.827Z" fill="white"/>
<path d="M218.903 187.524C223.299 186.742 227.507 189.604 228.401 193.971C229.286 198.338 226.531 202.618 222.184 203.613C219.273 204.279 216.23 203.318 214.237 201.101C212.244 198.884 211.604 195.759 212.58 192.94C213.548 190.119 215.967 188.046 218.903 187.524Z" fill="white"/>
<path d="M228.401 95.6859C224.781 48.6176 180.552 22.8026 139.605 48.1017C155.881 58.5373 161.82 74.0571 151.956 92.1487C148.289 98.8587 139.541 103.92 132.133 105.427C110.954 108.147 85.6648 105.124 64.3888 106.41C60.3439 119.939 61.1946 133.6 68.0485 146.102C74.5332 157.901 85.5123 166.574 98.4897 170.143C111.467 173.712 208.256 177.87 230.768 170.434C253.28 162.998 261.466 143.776 256.787 121.578C250.8 107.161 243.352 100.228 228.401 95.6859Z" fill="url(#paint1_linear_8810_8275)"/>
<path d="M120.071 180.879C122.843 179.859 125.951 180.408 128.207 182.317C130.462 184.226 131.512 187.199 130.962 190.101C130.413 193.003 128.346 195.387 125.549 196.34C121.301 197.79 116.668 195.551 115.167 191.317C113.666 187.084 115.856 182.431 120.071 180.879Z" fill="white"/>
<path d="M46.7648 110.029C40.1107 110.149 8.91294 107.189 22.6158 122.505C24.6107 124.735 48.024 123.428 52.8399 123.615C63.8516 123.603 129.409 124.807 134.221 122.259C137.516 118.132 137.888 115.325 134.022 111.289C128.54 108.692 58.983 109.934 46.7648 110.029Z" fill="white"/>
<path d="M210.296 56.7607L155.485 56.8738C146.456 56.8621 137.084 56.4658 128.07 57.0196C123.904 57.2751 121.859 59.5478 121.192 63.6039C122.546 71.5562 129.83 70.4362 136.24 70.4513C162.042 70.5133 187.877 70.4646 213.676 70.4211C220.909 70.5492 235.58 72.5647 238.88 65.048C238.426 53.244 219.428 56.9349 210.296 56.7607Z" fill="white"/>
<path d="M214.639 83.5571C201.197 83.6115 187.754 83.5919 174.311 83.499C167.182 83.4688 159.611 83.1982 152.52 83.8399C148.567 84.1984 146.825 86.6663 146.41 90.4837C147.186 93.4349 147.263 93.9032 149.44 96.0017C154.818 98.4411 203.88 97.0558 213.602 97.1706C221.397 97.2703 234.833 99.6049 238.631 91.9408C238.744 80.4509 223.199 83.6777 214.639 83.5571Z" fill="white"/>
<path d="M205.316 44.4146C208.581 44.433 219.283 44.8142 220.824 43.0383C234.953 26.745 199.792 30.4384 196.062 30.4099C186.149 30.3278 142.61 27.4721 137.086 34.0967C135.993 35.4077 135.696 36.655 136.06 38.2852C136.449 40.0293 138.339 42.6086 140.004 43.3675C145.878 46.0456 194.914 44.2672 205.316 44.4146Z" fill="white"/>
<path d="M60.5003 136.12C53.6049 136.321 24.0862 133.675 37.4329 148.197C40.2992 151.315 68.5025 149.895 73.9744 149.985C82.6829 149.872 114.006 152.796 119.911 147.337C121.293 146.059 121.794 144.88 121.843 143.04C121.89 141.3 120.931 139.758 119.734 138.557C114.972 133.784 69.6721 136.072 60.5003 136.12Z" fill="white"/>
<path d="M177.296 109.872C169.446 109.717 149.567 107.549 144.652 114.022C143.234 118.461 145.491 121.58 149.429 123.446C158.472 123.689 175.083 125.33 181.952 120.175C184.541 115.389 181.457 112.487 177.296 109.872Z" fill="white"/>
<path d="M109.317 56.9844C101.439 56.7959 61.2139 53.1595 80.0762 70.2762C87.7709 70.5124 127.649 74.143 109.317 56.9844Z" fill="white"/>
<path d="M135.083 83.7699C127.559 83.6124 88.2779 79.2438 104.229 96.6939C109.519 97.4085 116.274 97.1371 121.746 97.3934C131.576 97.8525 144.838 96.7216 135.083 83.7699Z" fill="white"/>
<defs>
<linearGradient id="paint0_linear_8810_8275" x1="129.027" y1="0" x2="129.027" y2="235.395" gradientUnits="userSpaceOnUse">
<stop stop-color="#7A96B0"/>
<stop offset="1" stop-color="#333F4A"/>
</linearGradient>
<linearGradient id="paint1_linear_8810_8275" x1="129.027" y1="0" x2="129.027" y2="235.395" gradientUnits="userSpaceOnUse">
<stop stop-color="#7A96B0"/>
<stop offset="1" stop-color="#333F4A"/>
</linearGradient>
</defs>
</svg>
