<svg width="302" height="237" viewBox="0 0 302 237" fill="none" xmlns="http://www.w3.org/2000/svg">
<path d="M52.3695 31.6607C54.4114 27.9534 57.013 23.7916 59.6193 20.4847C68.7618 8.96465 82.213 1.67867 96.8567 0.313889C130.441 -3.06337 152.19 21.2289 155.174 53.1016L162.936 56.207C210.035 26.2718 262.707 56.8978 266.846 111.436C281.01 116.657 291.101 122.477 297.739 137.126C302.894 148.369 303.238 161.227 298.693 172.73C294.213 183.839 285.377 192.628 274.243 197.049C259.821 202.93 218.734 200.7 200.84 200.535C195.252 208.309 179.506 232.687 172.813 236.674L170.84 236.605C169.159 232.518 174.046 206.796 175.084 200.718C157.852 200.76 128.082 202.456 112.278 197.796C81.9158 188.845 65.6511 154.557 75.2511 124.219L67.979 124.251C47.0296 124.326 29.1908 126.532 13.0339 110.169C4.36954 101.283 -0.326404 89.2672 0.0176588 76.8614C0.325159 64.4312 5.60797 52.6451 14.682 44.1433C26.1017 33.3901 37.5064 31.2398 52.3695 31.6607Z" fill="url(#paint0_linear_8806_5973)"/>
<path d="M52.3695 31.6607C54.4114 27.9534 57.013 23.7916 59.6193 20.4847C68.7618 8.96465 82.213 1.67867 96.8567 0.313889C130.441 -3.06337 152.19 21.2289 155.174 53.1016L162.936 56.207C193.207 72.8627 187.491 116.478 156.352 122.644C133.977 127.075 99.2474 123.155 75.2511 124.219L67.979 124.251C47.0296 124.326 29.1908 126.532 13.0339 110.169C4.36954 101.283 -0.326404 89.2672 0.0176588 76.8614C0.325159 64.4312 5.60797 52.6451 14.682 44.1433C26.1017 33.3901 37.5064 31.2398 52.3695 31.6607Z" fill="url(#paint1_linear_8806_5973)"/>
<path d="M177.74 183.077C172.034 183.105 153.016 184.499 149.719 180.621C151.741 172.175 188.853 121.967 196.055 111.002C197.071 109.455 198.317 109.399 199.87 109.416C203.9 115.021 196.58 151.843 195.525 161.717C201.536 161.674 218.513 161.024 223.531 162.262L224.335 164.03C223.009 171.579 206.549 192.537 200.84 200.535C195.252 208.309 179.506 232.687 172.813 236.674L170.84 236.605C169.159 232.518 174.046 206.796 175.084 200.718L177.74 183.077Z" fill="#F0AA01"/>
<defs>
<linearGradient id="paint0_linear_8806_5973" x1="150.935" y1="0" x2="150.935" y2="236.674" gradientUnits="userSpaceOnUse">
<stop stop-color="#7A96B0"/>
<stop offset="1" stop-color="#333F4A"/>
</linearGradient>
<linearGradient id="paint1_linear_8806_5973" x1="150.935" y1="0" x2="150.935" y2="236.674" gradientUnits="userSpaceOnUse">
<stop stop-color="#7A96B0"/>
<stop offset="1" stop-color="#333F4A"/>
</linearGradient>
</defs>
</svg>
